<?xml version="1.0" encoding="utf-8" standalone="no"?>
<!DOCTYPE svg PUBLIC "-//W3C//DTD SVG 1.1//EN"
  "http://www.w3.org/Graphics/SVG/1.1/DTD/svg11.dtd">
<svg xmlns:xlink="http://www.w3.org/1999/xlink" width="576pt" height="360pt" viewBox="0 0 576 360" xmlns="http://www.w3.org/2000/svg" version="1.1">
 <metadata>
  <rdf:RDF xmlns:dc="http://purl.org/dc/elements/1.1/" xmlns:cc="http://creativecommons.org/ns#" xmlns:rdf="http://www.w3.org/1999/02/22-rdf-syntax-ns#">
   <cc:Work>
    <dc:type rdf:resource="http://purl.org/dc/dcmitype/StillImage"/>
    <dc:date>2026-09-13T13:19:04.478303</dc:date>
    <dc:format>image/svg+xml</dc:format>
    <dc:creator>
     <cc:Agent>
      <dc:title>Matplotlib v3.11.2, https://matplotlib.org/</dc:title>
     </cc:Agent>
    </dc:creator>
   </cc:Work>
  </rdf:RDF>
 </metadata>
 <defs>
  <style type="text/css">*{stroke-linejoin: round; stroke-linecap: butt}</style>
 </defs>
 <g id="figure_1">
  <g id="patch_1">
   <path d="M 0 360 
L 576 360 
L 576 0 
L 0 0 
z
" style="fill: #ffffff"/>
  </g>
  <g id="axes_1">
   <g id="patch_2">
    <path d="M 18.4608 329.942222 
L 307.502836 329.942222 
L 307.502836 173.471091 
L 18.4608 173.471091 
z
" clip-path="url(#pba9e415610)" style="fill: #188568; stroke: #ffffff; stroke-linejoin: miter"/>
   </g>
   <g id="patch_3">
    <path d="M 18.4608 168.075534 
L 307.502836 168.075534 
L 307.502836 65.559966 
L 18.4608 65.559966 
z
" clip-path="url(#pba9e415610)" style="fill: #4878b7; stroke: #ffffff; stroke-linejoin: miter"/>
   </g>
   <g id="patch_4">
    <path d="M 318.504436 329.942222 
L 557.5392 329.942222 
L 557.5392 238.217766 
L 318.504436 238.217766 
z
" clip-path="url(#pba9e415610)" style="fill: #e59b42; stroke: #ffffff; stroke-linejoin: miter"/>
   </g>
   <g id="patch_5">
    <path d="M 318.504436 232.822209 
L 557.5392 232.822209 
L 557.5392 173.471091 
L 318.504436 173.471091 
z
" clip-path="url(#pba9e415610)" style="fill: #9566aa; stroke: #ffffff; stroke-linejoin: miter"/>
   </g>
   <g id="patch_6">
    <path d="M 318.504436 168.075534 
L 470.026473 168.075534 
L 470.026473 107.064244 
L 318.504436 107.064244 
z
" clip-path="url(#pba9e415610)" style="fill: #cb6677; stroke: #ffffff; stroke-linejoin: miter"/>
   </g>
   <g id="patch_7">
    <path d="M 318.504436 101.668688 
L 470.026473 101.668688 
L 470.026473 65.559966 
L 318.504436 65.559966 
z
" clip-path="url(#pba9e415610)" style="fill: #5d9fad; stroke: #ffffff; stroke-linejoin: miter"/>
   </g>
   <g id="patch_8">
    <path d="M 481.028073 168.075534 
L 557.5392 168.075534 
L 557.5392 111.807591 
L 481.028073 111.807591 
z
" clip-path="url(#pba9e415610)" style="fill: #188568; stroke: #ffffff; stroke-linejoin: miter"/>
   </g>
   <g id="patch_9">
    <path d="M 481.028073 106.412034 
L 557.5392 106.412034 
L 557.5392 65.559966 
L 481.028073 65.559966 
z
" clip-path="url(#pba9e415610)" style="fill: #4878b7; stroke: #ffffff; stroke-linejoin: miter"/>
   </g>
   <g id="text_1">
    <!-- 日志 -->
    <g style="fill: #ffffff" transform="translate(150.981818 248.774391) scale(0.12 -0.12)">
     <defs>
      <path id="MicrosoftYaHei-799" d="M 975 4909 
L 5431 4909 
L 5431 -766 
L 4900 -766 
L 4900 -322 
L 1506 -322 
L 1506 -766 
L 975 -766 
L 975 4909 
z
M 1506 2103 
L 1506 134 
L 4900 134 
L 4900 2103 
L 1506 2103 
z
M 1506 4441 
L 1506 2572 
L 4900 2572 
L 4900 4441 
L 1506 4441 
z
" transform="scale(0.015625)"/>
      <path id="MicrosoftYaHei-6ba" d="M 663 2703 
L 2944 2703 
L 2944 3903 
L 200 3903 
L 200 4341 
L 2944 4341 
L 2944 5341 
L 3456 5341 
L 3456 4341 
L 6213 4341 
L 6213 3903 
L 3456 3903 
L 3456 2703 
L 5738 2703 
L 5738 2266 
L 663 2266 
L 663 2703 
z
M 1625 1572 
L 2113 1572 
L 2113 153 
Q 2113 -222 2488 -222 
L 3806 -222 
Q 4256 -222 4338 109 
Q 4413 403 4469 866 
Q 4700 772 4963 684 
Q 4881 222 4800 -78 
Q 4656 -678 3950 -678 
L 2394 -678 
Q 1625 -678 1625 128 
L 1625 1572 
z
M 725 1684 
L 1194 1547 
Q 938 603 675 -91 
Q 469 -9 194 59 
Q 506 816 725 1684 
z
M 4981 1459 
L 5375 1709 
Q 5838 1091 6288 366 
L 5850 72 
Q 5394 859 4981 1459 
z
M 2600 1859 
L 2988 2116 
Q 3450 1547 3881 934 
L 3463 647 
Q 3006 1341 2600 1859 
z
" transform="scale(0.015625)"/>
     </defs>
     <use xlink:href="#MicrosoftYaHei-799"/>
     <use xlink:href="#MicrosoftYaHei-6ba" transform="translate(100 0)"/>
    </g>
    <!-- 360 GB -->
    <g style="fill: #ffffff" transform="translate(142.424318 261.612281) scale(0.12 -0.12)">
     <defs>
      <path id="MicrosoftYaHei-19" d="M 447 809 
Q 944 425 1569 425 
Q 2069 425 2361 670 
Q 2653 916 2653 1328 
Q 2653 2247 1338 2247 
L 934 2247 
L 934 2753 
L 1319 2753 
Q 2484 2753 2484 3616 
Q 2484 4413 1594 4413 
Q 1084 4413 634 4069 
L 634 4647 
Q 1109 4922 1744 4922 
Q 2363 4922 2738 4598 
Q 3113 4275 3113 3759 
Q 3113 2809 2144 2538 
L 2144 2525 
Q 2669 2469 2973 2155 
Q 3278 1841 3278 1372 
Q 3278 719 2808 319 
Q 2338 -81 1556 -81 
Q 869 -81 447 175 
L 447 809 
z
" transform="scale(0.015625)"/>
      <path id="MicrosoftYaHei-1c" d="M 3181 4219 
Q 2803 4413 2391 4413 
Q 1763 4413 1381 3866 
Q 1000 3319 994 2372 
L 1009 2372 
Q 1353 3038 2106 3038 
Q 2734 3038 3109 2628 
Q 3484 2219 3484 1541 
Q 3484 831 3051 375 
Q 2619 -81 1947 -81 
Q 1209 -81 789 495 
Q 369 1072 369 2131 
Q 369 3413 920 4167 
Q 1472 4922 2372 4922 
Q 2888 4922 3181 4781 
L 3181 4219 
z
M 1031 1584 
Q 1031 1106 1286 765 
Q 1541 425 1963 425 
Q 2363 425 2613 719 
Q 2863 1013 2863 1475 
Q 2863 1975 2627 2253 
Q 2391 2531 1956 2531 
Q 1544 2531 1287 2250 
Q 1031 1969 1031 1584 
z
" transform="scale(0.015625)"/>
      <path id="MicrosoftYaHei-16" d="M 284 2325 
Q 284 3606 709 4264 
Q 1134 4922 1941 4922 
Q 3478 4922 3478 2441 
Q 3478 1216 3045 567 
Q 2613 -81 1831 -81 
Q 1094 -81 689 534 
Q 284 1150 284 2325 
z
M 909 2353 
Q 909 425 1888 425 
Q 2850 425 2850 2384 
Q 2850 4413 1906 4413 
Q 909 4413 909 2353 
z
" transform="scale(0.015625)"/>
      <path id="MicrosoftYaHei-3" transform="scale(0.015625)"/>
      <path id="MicrosoftYaHei-2d" d="M 4284 331 
Q 3559 -81 2647 -81 
Q 1597 -81 955 583 
Q 313 1247 313 2356 
Q 313 3478 1022 4200 
Q 1731 4922 2841 4922 
Q 3625 4922 4169 4672 
L 4169 3997 
Q 3588 4363 2784 4363 
Q 1994 4363 1481 3822 
Q 969 3281 969 2397 
Q 969 1488 1441 981 
Q 1913 475 2716 475 
Q 3269 475 3656 688 
L 3656 1997 
L 2606 1997 
L 2606 2550 
L 4284 2550 
L 4284 331 
z
" transform="scale(0.015625)"/>
      <path id="MicrosoftYaHei-28" d="M 625 0 
L 625 4841 
L 2047 4841 
Q 2684 4841 3065 4536 
Q 3447 4231 3447 3728 
Q 3447 3328 3220 3022 
Q 2994 2716 2597 2588 
L 2597 2575 
Q 3091 2519 3386 2201 
Q 3681 1884 3681 1397 
Q 3681 772 3232 386 
Q 2784 0 2084 0 
L 625 0 
z
M 1250 4294 
L 1250 2778 
L 1819 2778 
Q 2272 2778 2530 2998 
Q 2788 3219 2788 3609 
Q 2788 4294 1875 4294 
L 1250 4294 
z
M 1250 2234 
L 1250 547 
L 2000 547 
Q 2491 547 2758 773 
Q 3025 1000 3025 1403 
Q 3025 2234 1897 2234 
L 1250 2234 
z
" transform="scale(0.015625)"/>
     </defs>
     <use xlink:href="#MicrosoftYaHei-19"/>
     <use xlink:href="#MicrosoftYaHei-1c" transform="translate(58.640625 0)"/>
     <use xlink:href="#MicrosoftYaHei-16" transform="translate(117.28125 0)"/>
     <use xlink:href="#MicrosoftYaHei-3" transform="translate(175.921875 0)"/>
     <use xlink:href="#MicrosoftYaHei-2d" transform="translate(205.515625 0)"/>
     <use xlink:href="#MicrosoftYaHei-28" transform="translate(279.875 0)"/>
    </g>
   </g>
   <g id="text_2">
    <!-- 图片 -->
    <g style="fill: #ffffff" transform="translate(150.981818 113.838609) scale(0.12 -0.12)">
     <defs>
      <path id="MicrosoftYaHei-5a3" d="M 431 5072 
L 5944 5072 
L 5944 -809 
L 5475 -809 
L 5475 -509 
L 900 -509 
L 900 -809 
L 431 -809 
L 431 5072 
z
M 5475 4622 
L 900 4622 
L 900 -59 
L 5475 -59 
L 5475 4622 
z
M 1113 3091 
Q 1969 3709 2519 4547 
L 2931 4353 
Q 2816 4181 2681 4016 
L 4894 4016 
L 4894 3647 
Q 4434 3091 3722 2644 
Q 4381 2422 5338 2297 
Q 5194 2016 5131 1828 
Q 4022 2081 3256 2400 
Q 2491 2056 1225 1728 
Q 1138 1934 1013 2128 
Q 2109 2353 2825 2644 
Q 2384 2947 2066 3341 
Q 1769 3056 1419 2784 
Q 1294 2916 1113 3091 
z
M 1563 672 
L 1694 1103 
Q 3256 897 4700 622 
L 4531 147 
Q 3150 453 1563 672 
z
M 4275 3628 
L 2347 3628 
Q 2338 3616 2328 3606 
Q 2691 3141 3244 2841 
Q 3891 3188 4275 3628 
z
M 2219 1503 
L 2344 1922 
Q 3263 1784 4275 1609 
L 4144 1172 
Q 3119 1378 2219 1503 
z
" transform="scale(0.015625)"/>
      <path id="MicrosoftYaHei-8cc" d="M 1263 5178 
L 1794 5178 
L 1794 3484 
L 4056 3484 
L 4056 5291 
L 4588 5291 
L 4588 3484 
L 6263 3484 
L 6263 3016 
L 1794 3016 
Q 1794 2616 1775 1916 
L 4856 1916 
L 4856 -809 
L 4319 -809 
L 4319 1441 
L 1738 1441 
Q 1613 91 694 -841 
Q 525 -616 300 -397 
Q 875 209 1069 822 
Q 1263 1372 1263 2584 
L 1263 5178 
z
" transform="scale(0.015625)"/>
     </defs>
     <use xlink:href="#MicrosoftYaHei-5a3"/>
     <use xlink:href="#MicrosoftYaHei-8cc" transform="translate(100 0)"/>
    </g>
    <!-- 240 GB -->
    <g style="fill: #ffffff" transform="translate(142.424318 126.6765) scale(0.12 -0.12)">
     <defs>
      <path id="MicrosoftYaHei-18" d="M 2666 3572 
Q 2666 3963 2419 4186 
Q 2172 4409 1747 4409 
Q 1447 4409 1140 4256 
Q 834 4103 569 3819 
L 569 4413 
Q 806 4659 1107 4790 
Q 1409 4922 1816 4922 
Q 2472 4922 2872 4570 
Q 3272 4219 3272 3619 
Q 3272 3084 3026 2693 
Q 2781 2303 2188 1894 
Q 1581 1475 1376 1294 
Q 1172 1113 1090 947 
Q 1009 781 1009 544 
L 3416 544 
L 3416 0 
L 372 0 
L 372 241 
Q 372 659 486 951 
Q 600 1244 862 1520 
Q 1125 1797 1681 2184 
Q 2250 2584 2458 2886 
Q 2666 3188 2666 3572 
z
" transform="scale(0.015625)"/>
      <path id="MicrosoftYaHei-1a" d="M 2906 4841 
L 2906 1644 
L 3631 1644 
L 3631 1138 
L 2906 1138 
L 2906 0 
L 2313 0 
L 2313 1138 
L 53 1138 
L 53 1616 
Q 656 2294 1265 3178 
Q 1875 4063 2272 4841 
L 2906 4841 
z
M 741 1644 
L 2313 1644 
L 2313 3950 
Q 1988 3366 1616 2817 
Q 1244 2269 741 1644 
z
" transform="scale(0.015625)"/>
     </defs>
     <use xlink:href="#MicrosoftYaHei-18"/>
     <use xlink:href="#MicrosoftYaHei-1a" transform="translate(58.640625 0)"/>
     <use xlink:href="#MicrosoftYaHei-16" transform="translate(117.28125 0)"/>
     <use xlink:href="#MicrosoftYaHei-3" transform="translate(175.921875 0)"/>
     <use xlink:href="#MicrosoftYaHei-2d" transform="translate(205.515625 0)"/>
     <use xlink:href="#MicrosoftYaHei-28" transform="translate(279.875 0)"/>
    </g>
   </g>
   <g id="text_3">
    <!-- 视频 -->
    <g style="fill: #ffffff" transform="translate(426.021818 281.106478) scale(0.12 -0.12)">
     <defs>
      <path id="MicrosoftYaHei-a82" d="M 3925 4047 
L 4413 4047 
Q 4413 2291 4325 1841 
L 4719 1841 
L 4719 128 
Q 4719 -241 5063 -241 
L 5400 -241 
Q 5769 -241 5831 84 
Q 5875 428 5900 966 
Q 6119 866 6375 778 
Q 6325 234 6275 -97 
Q 6194 -672 5519 -672 
L 4981 -672 
Q 4238 -672 4238 66 
L 4238 1403 
Q 3813 -191 2138 -903 
Q 2000 -709 1813 -491 
Q 3756 253 3888 2334 
Q 3925 3028 3925 4047 
z
M 2631 4953 
L 5769 4953 
L 5769 1103 
L 5281 1103 
L 5281 4516 
L 3119 4516 
L 3119 1103 
L 2631 1103 
L 2631 4953 
z
M 119 3559 
L 119 4009 
L 2150 4009 
L 2150 3547 
Q 1831 2984 1431 2466 
L 1431 2122 
L 1700 2366 
Q 2144 1966 2525 1584 
L 2163 1266 
Q 1844 1628 1431 2047 
L 1431 -822 
L 956 -822 
L 956 1891 
Q 625 1522 250 1178 
Q 181 1422 81 1716 
Q 1050 2566 1594 3559 
L 119 3559 
z
M 731 5078 
L 1169 5297 
Q 1406 4916 1663 4434 
L 1200 4197 
Q 950 4709 731 5078 
z
" transform="scale(0.015625)"/>
      <path id="MicrosoftYaHei-bc8" d="M 3200 3716 
L 4113 3716 
L 4269 4522 
L 2938 4522 
L 2938 4947 
L 6294 4947 
L 6294 4522 
L 4788 4522 
L 4600 3716 
L 6019 3716 
L 6019 478 
L 5550 478 
L 5550 3291 
L 3669 3291 
L 3669 478 
L 3200 478 
L 3200 3716 
z
M 94 3034 
L 525 3034 
L 525 4691 
L 963 4691 
L 963 3034 
L 1600 3034 
L 1600 5272 
L 2050 5272 
L 2050 4291 
L 2925 4291 
L 2925 3878 
L 2050 3878 
L 2050 3034 
L 3006 3034 
L 3006 2609 
L 94 2609 
L 94 3034 
z
M 4356 2884 
L 4825 2884 
L 4825 1934 
Q 4825 1216 4650 716 
Q 5619 128 6375 -403 
L 6075 -841 
Q 5306 -234 4450 303 
Q 4413 241 4369 184 
Q 3913 -447 2763 -884 
Q 2625 -691 2444 -478 
Q 3525 -72 3944 447 
Q 4356 947 4356 1966 
L 4356 2884 
z
M 1550 2459 
L 2000 2459 
L 2000 853 
Q 2394 1309 2663 1866 
L 3100 1609 
Q 2206 -47 394 -909 
Q 275 -741 69 -503 
Q 1125 -47 1819 659 
L 1550 659 
L 1550 2459 
z
M 38 578 
Q 381 1191 669 2084 
L 1113 1947 
Q 806 1028 456 366 
Q 269 472 38 578 
z
" transform="scale(0.015625)"/>
     </defs>
     <use xlink:href="#MicrosoftYaHei-a82"/>
     <use xlink:href="#MicrosoftYaHei-bc8" transform="translate(100 0)"/>
    </g>
    <!-- 180 GB -->
    <g style="fill: #ffffff" transform="translate(417.464318 293.944369) scale(0.12 -0.12)">
     <defs>
      <path id="MicrosoftYaHei-17" d="M 1781 0 
L 1781 4141 
Q 1638 3997 1295 3819 
Q 953 3641 663 3569 
L 663 4169 
Q 1047 4275 1484 4508 
Q 1922 4741 2156 4947 
L 2388 4947 
L 2388 0 
L 1781 0 
z
" transform="scale(0.015625)"/>
      <path id="MicrosoftYaHei-1e" d="M 306 1350 
Q 306 1769 556 2122 
Q 806 2475 1200 2625 
Q 884 2803 700 3081 
Q 516 3359 516 3684 
Q 516 4028 692 4312 
Q 869 4597 1183 4759 
Q 1497 4922 1875 4922 
Q 2256 4922 2572 4761 
Q 2888 4600 3063 4315 
Q 3238 4031 3238 3684 
Q 3238 3366 3058 3086 
Q 2878 2806 2559 2625 
Q 2953 2472 3200 2119 
Q 3447 1766 3447 1350 
Q 3447 938 3250 611 
Q 3053 284 2690 103 
Q 2328 -78 1875 -78 
Q 1425 -78 1065 103 
Q 706 284 506 612 
Q 306 941 306 1350 
z
M 906 1378 
Q 906 947 1172 687 
Q 1438 428 1878 428 
Q 2309 428 2582 692 
Q 2856 956 2856 1378 
Q 2856 1778 2579 2051 
Q 2303 2325 1878 2325 
Q 1456 2325 1181 2058 
Q 906 1791 906 1378 
z
M 1081 3634 
Q 1081 3309 1312 3076 
Q 1544 2844 1878 2844 
Q 2206 2844 2445 3078 
Q 2684 3313 2684 3634 
Q 2684 3963 2454 4191 
Q 2225 4419 1878 4419 
Q 1534 4419 1307 4195 
Q 1081 3972 1081 3634 
z
" transform="scale(0.015625)"/>
     </defs>
     <use xlink:href="#MicrosoftYaHei-17"/>
     <use xlink:href="#MicrosoftYaHei-1e" transform="translate(58.640625 0)"/>
     <use xlink:href="#MicrosoftYaHei-16" transform="translate(117.28125 0)"/>
     <use xlink:href="#MicrosoftYaHei-3" transform="translate(175.921875 0)"/>
     <use xlink:href="#MicrosoftYaHei-2d" transform="translate(205.515625 0)"/>
     <use xlink:href="#MicrosoftYaHei-28" transform="translate(279.875 0)"/>
    </g>
   </g>
   <g id="text_4">
    <!-- 模型 -->
    <g style="fill: #ffffff" transform="translate(426.021818 200.184384) scale(0.12 -0.12)">
     <defs>
      <path id="MicrosoftYaHei-825" d="M 2050 984 
L 3859 984 
Q 3900 1213 3913 1547 
L 2950 1547 
L 2950 1372 
L 2500 1372 
L 2500 3634 
L 5844 3634 
L 5844 1372 
L 5394 1372 
L 5394 1547 
L 4344 1547 
Q 4325 1203 4288 984 
L 6250 984 
L 6250 584 
L 4525 584 
Q 5203 -175 6319 -341 
Q 6144 -572 6013 -809 
Q 4803 -456 4128 466 
Q 3681 -431 2075 -847 
Q 1969 -628 1831 -416 
Q 3303 -106 3713 584 
L 2050 584 
L 2050 984 
z
M 63 1409 
Q 603 2316 922 3509 
L 138 3509 
L 138 3922 
L 1006 3922 
L 1006 5309 
L 1444 5309 
L 1444 3922 
L 2256 3922 
L 2256 3509 
L 1444 3509 
L 1444 2684 
L 1688 2884 
Q 2044 2503 2350 2116 
L 2006 1828 
Q 1719 2244 1444 2563 
L 1444 -822 
L 1006 -822 
L 1006 2581 
Q 672 1438 275 859 
Q 188 1128 63 1409 
z
M 4713 5303 
L 5150 5303 
L 5150 4703 
L 6225 4703 
L 6225 4303 
L 5150 4303 
L 5150 3797 
L 4713 3797 
L 4713 4303 
L 3600 4303 
L 3600 3797 
L 3163 3797 
L 3163 4303 
L 2175 4303 
L 2175 4703 
L 3163 4703 
L 3163 5309 
L 3600 5309 
L 3600 4703 
L 4713 4703 
L 4713 5303 
z
M 5394 3247 
L 2950 3247 
L 2950 2778 
L 5394 2778 
L 5394 3247 
z
M 2950 1934 
L 5394 1934 
L 5394 2403 
L 2950 2403 
L 2950 1934 
z
" transform="scale(0.015625)"/>
      <path id="MicrosoftYaHei-5ba" d="M 150 3503 
L 1100 3503 
Q 1106 3638 1106 4547 
L 413 4547 
L 413 4959 
L 3675 4959 
L 3675 4547 
L 2994 4547 
L 2994 3503 
L 3881 3503 
L 3881 3091 
L 2994 3091 
L 2994 1747 
L 2538 1747 
L 2538 3091 
L 1528 3091 
Q 1450 2191 638 1534 
Q 475 1716 294 1897 
Q 1013 2453 1066 3091 
L 150 3091 
L 150 3503 
z
M 138 -103 
L 2938 -103 
L 2938 741 
L 706 741 
L 706 1172 
L 2938 1172 
L 2938 1659 
L 3425 1659 
L 3425 1172 
L 5713 1172 
L 5713 741 
L 3425 741 
L 3425 -103 
L 6256 -103 
L 6256 -534 
L 138 -534 
L 138 -103 
z
M 5856 5209 
L 5856 2334 
Q 5856 1672 5200 1659 
Q 4825 1647 4331 1659 
Q 4306 1897 4256 2153 
Q 4781 2122 5044 2122 
Q 5400 2122 5400 2516 
L 5400 5209 
L 5856 5209 
z
M 1556 3503 
L 2538 3503 
L 2538 4547 
L 1563 4547 
Q 1563 3791 1556 3503 
z
M 4138 4859 
L 4588 4859 
L 4588 2697 
L 4138 2697 
L 4138 4859 
z
" transform="scale(0.015625)"/>
     </defs>
     <use xlink:href="#MicrosoftYaHei-825"/>
     <use xlink:href="#MicrosoftYaHei-5ba" transform="translate(100 0)"/>
    </g>
    <!-- 120 GB -->
    <g style="fill: #ffffff" transform="translate(417.464318 213.022275) scale(0.12 -0.12)">
     <use xlink:href="#MicrosoftYaHei-17"/>
     <use xlink:href="#MicrosoftYaHei-18" transform="translate(58.640625 0)"/>
     <use xlink:href="#MicrosoftYaHei-16" transform="translate(117.28125 0)"/>
     <use xlink:href="#MicrosoftYaHei-3" transform="translate(175.921875 0)"/>
     <use xlink:href="#MicrosoftYaHei-2d" transform="translate(205.515625 0)"/>
     <use xlink:href="#MicrosoftYaHei-28" transform="translate(279.875 0)"/>
    </g>
   </g>
   <g id="text_5">
    <!-- 备份 -->
    <g style="fill: #ffffff" transform="translate(382.265455 134.695749) scale(0.12 -0.12)">
     <defs>
      <path id="MicrosoftYaHei-5d5" d="M 975 2097 
L 5425 2097 
L 5425 -816 
L 4975 -816 
L 4975 -541 
L 1425 -541 
L 1425 -816 
L 975 -816 
L 975 2097 
z
M 1869 5403 
L 2338 5203 
Q 2200 4975 2041 4753 
L 5425 4753 
L 5425 4334 
Q 4847 3638 3869 3119 
Q 4903 2772 6338 2697 
Q 6131 2403 5988 2172 
Q 4372 2366 3278 2838 
Q 2038 2306 281 2003 
Q 169 2222 19 2453 
Q 1569 2678 2719 3119 
Q 1981 3547 1559 4138 
Q 1094 3603 506 3109 
Q 338 3297 163 3453 
Q 1281 4353 1869 5403 
z
M 4756 4341 
L 1953 4341 
Q 2456 3741 3275 3353 
Q 4156 3772 4756 4341 
z
M 1425 953 
L 2975 953 
L 2975 1722 
L 1425 1722 
L 1425 953 
z
M 4975 1722 
L 3425 1722 
L 3425 953 
L 4975 953 
L 4975 1722 
z
M 3425 -166 
L 4975 -166 
L 4975 597 
L 3425 597 
L 3425 -166 
z
M 1425 -166 
L 2975 -166 
L 2975 597 
L 1425 597 
L 1425 -166 
z
" transform="scale(0.015625)"/>
      <path id="MicrosoftYaHei-461" d="M 2269 2653 
L 5394 2653 
Q 5388 2566 5300 366 
Q 5275 -709 4319 -722 
Q 3806 -722 3425 -703 
Q 3394 -416 3331 -184 
Q 3763 -241 4200 -253 
Q 4806 -297 4813 422 
Q 4863 1259 4888 2216 
L 3481 2216 
Q 3463 1222 3181 572 
Q 2844 -172 2019 -822 
Q 1856 -622 1656 -416 
Q 2450 203 2713 772 
Q 2969 1275 2997 2216 
L 2269 2216 
L 2269 2653 
z
M 75 2353 
Q 969 3534 1525 5284 
L 2013 5116 
Q 1709 4284 1350 3559 
L 1350 -809 
L 875 -809 
L 875 2691 
Q 588 2216 275 1797 
Q 181 2066 75 2353 
z
M 4006 5116 
L 4419 5291 
Q 5038 3703 6325 2972 
Q 6088 2697 5969 2516 
Q 4575 3472 4006 5116 
z
M 1588 2741 
Q 2563 3597 3163 5034 
L 3606 4866 
Q 3025 3409 1963 2397 
Q 1738 2628 1588 2741 
z
" transform="scale(0.015625)"/>
     </defs>
     <use xlink:href="#MicrosoftYaHei-5d5"/>
     <use xlink:href="#MicrosoftYaHei-461" transform="translate(100 0)"/>
    </g>
    <!-- 80 GB -->
    <g style="fill: #ffffff" transform="translate(377.226392 147.533639) scale(0.12 -0.12)">
     <use xlink:href="#MicrosoftYaHei-1e"/>
     <use xlink:href="#MicrosoftYaHei-16" transform="translate(58.640625 0)"/>
     <use xlink:href="#MicrosoftYaHei-3" transform="translate(117.28125 0)"/>
     <use xlink:href="#MicrosoftYaHei-2d" transform="translate(146.875 0)"/>
     <use xlink:href="#MicrosoftYaHei-28" transform="translate(221.234375 0)"/>
    </g>
   </g>
   <g id="text_6">
    <!-- 缓存 -->
    <g style="fill: #ffffff" transform="translate(382.265455 80.698936) scale(0.12 -0.12)">
     <defs>
      <path id="MicrosoftYaHei-9d9" d="M 2150 2566 
L 2981 2566 
Q 3006 2819 3016 3091 
L 2275 3091 
L 2275 3478 
L 4784 3478 
Q 5081 3959 5363 4516 
L 5800 4266 
Q 5478 3778 5263 3478 
L 6138 3478 
L 6138 3091 
L 3447 3091 
Q 3441 2822 3416 2566 
L 6238 2566 
L 6238 2178 
L 3369 2178 
Q 3328 1922 3269 1678 
L 5663 1678 
L 5663 1297 
Q 5244 616 4650 128 
Q 5347 -241 6300 -322 
Q 6175 -572 6069 -791 
Q 5006 -641 4259 -156 
Q 3544 -625 2613 -859 
Q 2506 -666 2375 -447 
Q 3231 -250 3881 122 
Q 3409 528 3097 1100 
Q 2741 106 2013 -603 
Q 1938 -459 1744 -197 
Q 2675 713 2928 2178 
L 2150 2178 
L 2150 2566 
z
M 863 1641 
Q 1481 1716 2100 1803 
Q 2081 1609 2075 1359 
Q 1069 1241 350 1122 
L 244 1566 
Q 625 1975 1184 2934 
Q 503 2900 225 2853 
L 138 3284 
Q 606 3922 1138 5284 
L 1625 5134 
Q 1119 4091 663 3303 
Q 1166 3313 1403 3319 
Q 1619 3706 1856 4166 
L 2294 3966 
Q 1538 2622 863 1641 
z
M 2325 4434 
Q 2288 4647 2238 4878 
Q 4194 4928 5994 5109 
L 6081 4659 
Q 4725 4534 2325 4434 
z
M 5156 1291 
L 3416 1291 
Q 3756 734 4263 369 
Q 4794 756 5156 1291 
z
M 181 259 
Q 894 422 2050 691 
Q 2031 553 2031 228 
Q 994 -16 300 -216 
L 181 259 
z
M 3769 4328 
L 4163 4478 
Q 4338 4153 4506 3703 
L 4081 3547 
Q 3963 3916 3769 4328 
z
M 2519 4203 
L 2881 4397 
Q 3088 4116 3306 3722 
L 2906 3503 
Q 2706 3916 2519 4203 
z
" transform="scale(0.015625)"/>
      <path id="MicrosoftYaHei-602" d="M 169 4641 
L 1925 4641 
Q 2053 4991 2163 5359 
L 2675 5228 
Q 2578 4928 2472 4641 
L 6275 4641 
L 6275 4178 
L 2291 4178 
Q 1963 3384 1563 2709 
L 1563 -797 
L 1081 -797 
L 1081 1984 
Q 747 1528 369 1141 
Q 244 1359 69 1591 
Q 1113 2688 1744 4178 
L 169 4178 
L 169 4641 
z
M 1838 1791 
L 3994 1791 
L 3994 2203 
Q 4656 2628 5156 3047 
L 2256 3047 
L 2256 3503 
L 5869 3503 
L 5869 2997 
Q 5231 2491 4475 1978 
L 4475 1791 
L 6319 1791 
L 6319 1334 
L 4475 1334 
L 4475 -72 
Q 4475 -784 3763 -784 
Q 3425 -784 2856 -766 
Q 2825 -528 2775 -259 
Q 3375 -322 3663 -322 
Q 3994 -322 3994 9 
L 3994 1334 
L 1838 1334 
L 1838 1791 
z
" transform="scale(0.015625)"/>
     </defs>
     <use xlink:href="#MicrosoftYaHei-9d9"/>
     <use xlink:href="#MicrosoftYaHei-602" transform="translate(100 0)"/>
    </g>
    <!-- 50 GB -->
    <g style="fill: #ffffff" transform="translate(377.226392 93.536827) scale(0.12 -0.12)">
     <defs>
      <path id="MicrosoftYaHei-1b" d="M 3294 1494 
Q 3294 784 2823 350 
Q 2353 -84 1559 -84 
Q 878 -84 544 119 
L 544 744 
Q 1034 425 1544 425 
Q 2050 425 2361 704 
Q 2672 984 2672 1447 
Q 2672 1909 2348 2167 
Q 2025 2425 1434 2425 
Q 978 2425 613 2384 
L 791 4841 
L 3053 4841 
L 3053 4303 
L 1306 4303 
L 1206 2931 
L 1647 2950 
Q 2416 2950 2855 2567 
Q 3294 2184 3294 1494 
z
" transform="scale(0.015625)"/>
     </defs>
     <use xlink:href="#MicrosoftYaHei-1b"/>
     <use xlink:href="#MicrosoftYaHei-16" transform="translate(58.640625 0)"/>
     <use xlink:href="#MicrosoftYaHei-3" transform="translate(117.28125 0)"/>
     <use xlink:href="#MicrosoftYaHei-2d" transform="translate(146.875 0)"/>
     <use xlink:href="#MicrosoftYaHei-28" transform="translate(221.234375 0)"/>
    </g>
   </g>
   <g id="text_7">
    <!-- 文档 -->
    <g style="fill: #ffffff" transform="translate(507.283636 137.009297) scale(0.12 -0.12)">
     <defs>
      <path id="MicrosoftYaHei-786" d="M 194 4241 
L 3194 4241 
Q 2878 4841 2700 5116 
L 3181 5341 
Q 3356 5072 3706 4466 
L 3256 4241 
L 6194 4241 
L 6194 3778 
L 5041 3778 
Q 4706 1994 3603 909 
Q 4434 303 6244 -178 
Q 5956 -503 5806 -722 
Q 4044 -113 3203 553 
Q 2359 -103 506 -772 
Q 344 -553 131 -284 
Q 1919 253 2822 913 
Q 1681 2131 1372 3778 
L 194 3778 
L 194 4241 
z
M 4506 3778 
L 1872 3778 
Q 2153 2241 3216 1238 
Q 4231 2181 4506 3778 
z
" transform="scale(0.015625)"/>
      <path id="MicrosoftYaHei-808" d="M 2225 -34 
L 5575 -34 
L 5575 1066 
L 2494 1066 
L 2494 1497 
L 5575 1497 
L 5575 2547 
L 2388 2547 
L 2388 2991 
L 3981 2991 
L 3981 5259 
L 4456 5259 
L 4456 2991 
L 6050 2991 
L 6050 -828 
L 5575 -828 
L 5575 -478 
L 2225 -478 
L 2225 -34 
z
M 25 1303 
Q 681 2272 1025 3572 
L 88 3572 
L 88 3997 
L 1038 3997 
L 1038 5253 
L 1506 5253 
L 1506 3997 
L 2381 3997 
L 2381 3572 
L 1506 3572 
L 1506 2628 
L 1706 2822 
Q 2225 2303 2606 1897 
L 2231 1559 
Q 1894 1978 1506 2397 
L 1506 -809 
L 1038 -809 
L 1038 2397 
Q 700 1416 244 759 
Q 144 1022 25 1303 
z
M 4950 3603 
Q 5381 4197 5794 4953 
L 6250 4684 
Q 5775 3916 5344 3316 
L 4950 3603 
z
M 2263 4697 
L 2650 4941 
Q 3119 4297 3556 3622 
L 3113 3334 
Q 2713 4034 2263 4697 
z
" transform="scale(0.015625)"/>
     </defs>
     <use xlink:href="#MicrosoftYaHei-786"/>
     <use xlink:href="#MicrosoftYaHei-808" transform="translate(100 0)"/>
    </g>
    <!-- 40 GB -->
    <g style="fill: #ffffff" transform="translate(502.244574 149.847188) scale(0.12 -0.12)">
     <use xlink:href="#MicrosoftYaHei-1a"/>
     <use xlink:href="#MicrosoftYaHei-16" transform="translate(58.640625 0)"/>
     <use xlink:href="#MicrosoftYaHei-3" transform="translate(117.28125 0)"/>
     <use xlink:href="#MicrosoftYaHei-2d" transform="translate(146.875 0)"/>
     <use xlink:href="#MicrosoftYaHei-28" transform="translate(221.234375 0)"/>
    </g>
   </g>
   <g id="text_8">
    <!-- 其他 -->
    <g style="fill: #ffffff" transform="translate(507.283636 83.035922) scale(0.12 -0.12)">
     <defs>
      <path id="MicrosoftYaHei-4bf" d="M 5206 5284 
L 5206 4509 
L 6150 4509 
L 6150 4059 
L 5206 4059 
L 5206 1153 
L 6288 1153 
L 6288 703 
L 125 703 
L 125 1153 
L 1194 1153 
L 1194 4059 
L 250 4059 
L 250 4509 
L 1194 4509 
L 1194 5284 
L 1675 5284 
L 1675 4509 
L 4725 4509 
L 4725 5284 
L 5206 5284 
z
M 1675 1153 
L 4725 1153 
L 4725 1834 
L 1675 1834 
L 1675 1153 
z
M 1675 2272 
L 4725 2272 
L 4725 2947 
L 1675 2947 
L 1675 2272 
z
M 1675 3384 
L 4725 3384 
L 4725 4059 
L 1675 4059 
L 1675 3384 
z
M 3794 184 
L 4069 609 
Q 5581 3 6306 -353 
L 6044 -841 
Q 4975 -284 3794 184 
z
M 2269 603 
L 2569 184 
Q 1381 -472 350 -872 
Q 269 -672 94 -403 
Q 1400 72 2269 603 
z
" transform="scale(0.015625)"/>
      <path id="MicrosoftYaHei-455" d="M 3850 5259 
L 4338 5259 
L 4338 3706 
L 5963 4078 
Q 5919 2691 5894 2159 
Q 5863 1603 5713 1428 
Q 5544 1216 5113 1216 
Q 4919 1216 4619 1228 
Q 4581 1466 4525 1741 
Q 4794 1709 5063 1697 
Q 5400 1678 5413 2184 
Q 5444 2709 5456 3497 
L 4338 3238 
L 4338 466 
L 3850 466 
L 3850 3122 
L 2800 2878 
L 2800 353 
Q 2800 -172 3319 -172 
L 5056 -172 
Q 5625 -172 5706 247 
Q 5788 647 5844 1216 
Q 6106 1116 6363 1041 
Q 6281 447 6181 41 
Q 6025 -647 5138 -647 
L 3219 -647 
Q 2313 -647 2313 253 
L 2313 2766 
L 1750 2634 
L 1669 3097 
L 2313 3244 
L 2313 4528 
L 2800 4528 
L 2800 3353 
L 3850 3594 
L 3850 5259 
z
M 50 2366 
Q 1019 3672 1519 5322 
L 2025 5153 
Q 1719 4300 1363 3578 
L 1363 -816 
L 888 -816 
L 888 2716 
Q 584 2225 250 1809 
Q 156 2078 50 2366 
z
" transform="scale(0.015625)"/>
     </defs>
     <use xlink:href="#MicrosoftYaHei-4bf"/>
     <use xlink:href="#MicrosoftYaHei-455" transform="translate(100 0)"/>
    </g>
    <!-- 30 GB -->
    <g style="fill: #ffffff" transform="translate(502.244574 95.873813) scale(0.12 -0.12)">
     <use xlink:href="#MicrosoftYaHei-19"/>
     <use xlink:href="#MicrosoftYaHei-16" transform="translate(58.640625 0)"/>
     <use xlink:href="#MicrosoftYaHei-3" transform="translate(117.28125 0)"/>
     <use xlink:href="#MicrosoftYaHei-2d" transform="translate(146.875 0)"/>
     <use xlink:href="#MicrosoftYaHei-28" transform="translate(221.234375 0)"/>
    </g>
   </g>
  </g>
  <g id="text_9">
   <!-- 41 · 矩形树图展示空间占用的长尾 -->
   <g style="fill: #1c493a" transform="translate(46.08 19.24425) scale(0.144 -0.144)">
    <defs>
     <path id="MicrosoftYaHei-Bold-1a" d="M 3184 4841 
L 3184 1766 
L 3869 1766 
L 3869 1031 
L 3184 1031 
L 3184 0 
L 2266 0 
L 2266 1031 
L 103 1031 
L 103 1772 
Q 775 2522 1362 3359 
Q 1950 4197 2250 4841 
L 3184 4841 
z
M 997 1766 
L 2266 1766 
L 2266 3541 
Q 2116 3259 1836 2859 
Q 1556 2459 997 1766 
z
" transform="scale(0.015625)"/>
     <path id="MicrosoftYaHei-Bold-17" d="M 2716 4947 
L 2716 0 
L 1700 0 
L 1700 3809 
Q 1513 3647 1188 3517 
Q 863 3388 591 3356 
L 591 4222 
Q 1447 4472 2072 4947 
L 2716 4947 
z
" transform="scale(0.015625)"/>
     <path id="MicrosoftYaHei-Bold-3" transform="scale(0.015625)"/>
     <path id="MicrosoftYaHei-Bold-215" d="M 1406 2959 
Q 1769 2959 2028 2700 
Q 2288 2441 2288 2078 
Q 2288 1713 2028 1455 
Q 1769 1197 1406 1197 
Q 1041 1197 783 1455 
Q 525 1713 525 2078 
Q 525 2441 783 2700 
Q 1041 2959 1406 2959 
z
" transform="scale(0.015625)"/>
     <path id="MicrosoftYaHei-Bold-90e" d="M 6313 -634 
L 2875 -634 
L 2875 181 
L 2294 -309 
Q 1959 244 1631 722 
Q 1284 -166 581 -847 
Q 325 -397 88 -53 
Q 956 709 1147 1953 
L 125 1953 
L 125 2734 
L 1200 2734 
L 1200 3734 
L 1041 3734 
Q 831 3231 563 2778 
Q 325 3153 50 3484 
Q 538 4328 750 5353 
L 1519 5209 
Q 1434 4853 1328 4516 
L 2588 4516 
L 2588 3734 
L 1969 3734 
L 1969 2734 
L 2725 2734 
L 2725 1953 
L 1931 1953 
Q 1913 1775 1881 1600 
Q 2375 981 2875 303 
L 2875 5078 
L 6256 5078 
L 6256 4291 
L 3713 4291 
L 3713 3453 
L 6063 3453 
L 6063 1016 
L 3713 1016 
L 3713 153 
L 6313 153 
L 6313 -634 
z
M 5238 1791 
L 5238 2678 
L 3713 2678 
L 3713 1791 
L 5238 1791 
z
" transform="scale(0.015625)"/>
     <path id="MicrosoftYaHei-Bold-6a4" d="M 5488 5322 
L 6100 4797 
Q 5244 3897 4169 3209 
Q 3900 3591 3569 3934 
Q 4719 4497 5488 5322 
z
M 150 2797 
L 806 2797 
L 806 4216 
L 288 4216 
L 288 4966 
L 3744 4966 
L 3744 4216 
L 3188 4216 
L 3188 2797 
L 3894 2797 
L 3894 2094 
Q 4859 2678 5631 3547 
L 6244 3003 
Q 5325 2003 4188 1241 
Q 3944 1566 3594 1922 
Q 3706 1981 3816 2047 
L 3188 2047 
L 3188 -759 
L 2363 -759 
L 2363 2047 
L 1619 2047 
Q 1528 56 781 -872 
Q 375 -434 75 -172 
Q 725 528 797 2047 
L 150 2047 
L 150 2797 
z
M 1631 2797 
L 2363 2797 
L 2363 4216 
L 1631 4216 
L 1631 2797 
z
M 5669 1659 
L 6319 1134 
Q 5225 -141 3931 -872 
Q 3644 -453 3350 -91 
Q 4688 559 5669 1659 
z
" transform="scale(0.015625)"/>
     <path id="MicrosoftYaHei-Bold-7da" d="M 1994 4753 
L 3863 4753 
Q 3863 3075 3519 1822 
L 4269 516 
L 3588 97 
Q 3400 494 3197 897 
Q 2838 78 2281 -497 
Q 2038 -53 1806 272 
Q 2413 934 2734 1781 
Q 2391 2416 2013 3066 
L 2581 3416 
L 2994 2725 
Q 3100 3300 3100 3947 
L 2169 3947 
L 2169 3397 
L 1569 3397 
L 1569 2841 
Q 2050 2453 2463 2059 
L 1963 1428 
Q 1766 1709 1569 1950 
L 1569 -834 
L 794 -834 
L 794 1544 
Q 588 1050 306 566 
Q 225 1128 113 1709 
Q 559 2488 794 3306 
L 794 3397 
L 138 3397 
L 138 4209 
L 794 4209 
L 794 5309 
L 1569 5309 
L 1569 4209 
L 1994 4209 
L 1994 4753 
z
M 3931 4191 
L 5050 4191 
L 5050 5266 
L 5863 5266 
L 5863 4191 
L 6306 4191 
L 6306 3378 
L 5863 3378 
L 5863 209 
Q 5863 -178 5714 -409 
Q 5566 -641 5323 -703 
Q 5081 -766 4238 -766 
Q 4181 -347 4069 41 
Q 4438 22 4663 22 
Q 5050 22 5050 447 
L 5050 3378 
L 3931 3378 
L 3931 4191 
z
M 3806 2791 
L 4413 2978 
Q 4719 2178 4913 1472 
L 4300 1278 
Q 4106 1991 3806 2791 
z
" transform="scale(0.015625)"/>
     <path id="MicrosoftYaHei-Bold-5a2" d="M 369 -841 
L 369 5072 
L 6019 5072 
L 6019 -834 
L 5156 -834 
L 5156 -591 
L 1231 -591 
L 1231 -841 
L 369 -841 
z
M 4875 3978 
L 4875 3466 
Q 4547 3022 4006 2678 
Q 4513 2541 5156 2463 
L 5156 4316 
L 3256 4316 
Q 3141 4144 3009 3978 
L 4875 3978 
z
M 2394 4316 
L 1231 4316 
L 1231 3231 
Q 2016 3747 2394 4316 
z
M 3228 2959 
Q 3666 3163 3919 3416 
L 2575 3416 
Q 2828 3156 3228 2959 
z
M 1644 2747 
Q 1481 2925 1231 3147 
L 1231 2400 
Q 1950 2522 2500 2688 
Q 2266 2863 2078 3063 
Q 1872 2900 1644 2747 
z
M 1669 1303 
Q 3319 1084 4775 841 
L 4600 166 
L 5156 166 
L 5156 2388 
Q 5019 2159 4825 1822 
Q 3897 1978 3219 2275 
Q 2872 2134 2472 2019 
Q 3509 1888 4500 1722 
L 4375 1128 
Q 3344 1309 2063 1484 
L 2159 1934 
Q 1856 1859 1525 1797 
Q 1409 2059 1231 2347 
L 1231 166 
L 4569 166 
Q 3297 425 1494 647 
L 1669 1303 
z
" transform="scale(0.015625)"/>
     <path id="MicrosoftYaHei-Bold-649" d="M 5988 684 
L 5069 263 
Q 5588 56 6238 -9 
Q 6175 -91 5700 -797 
Q 4450 -456 3703 325 
Q 3688 -28 3694 -422 
Q 2481 -722 2056 -897 
L 1763 -234 
Q 1906 -91 1894 447 
L 1894 1091 
L 1397 1091 
Q 1275 -72 800 -909 
Q 488 -466 169 -116 
Q 606 797 613 3072 
L 613 5066 
L 5913 5066 
L 5913 3278 
L 4900 3278 
L 4900 2803 
L 6000 2803 
L 6000 2191 
L 4900 2191 
L 4900 1716 
L 6175 1716 
L 6175 1091 
L 5697 1091 
L 5988 684 
z
M 5075 3891 
L 5075 4378 
L 1475 4378 
L 1475 3891 
L 5075 3891 
z
M 3138 2803 
L 4100 2803 
L 4100 3278 
L 3138 3278 
L 3138 2803 
z
M 1472 2803 
L 2338 2803 
L 2338 3278 
L 1475 3278 
L 1472 2803 
z
M 3138 1716 
L 4100 1716 
L 4100 2191 
L 3138 2191 
L 3138 1716 
z
M 1441 1716 
L 2338 1716 
L 2338 2191 
L 1459 2191 
Q 1453 1938 1441 1716 
z
M 3147 1091 
L 2731 1091 
L 2731 84 
Q 3128 200 3678 350 
Q 3369 681 3147 1091 
z
M 4388 634 
L 5178 1091 
L 3891 1091 
Q 4113 834 4388 634 
z
" transform="scale(0.015625)"/>
     <path id="MicrosoftYaHei-Bold-920" d="M 769 4966 
L 5669 4966 
L 5669 4078 
L 769 4078 
L 769 4966 
z
M 206 3259 
L 6206 3259 
L 6206 2372 
L 3794 2372 
L 3794 303 
Q 3794 -216 3612 -430 
Q 3431 -644 3173 -711 
Q 2916 -778 1850 -778 
Q 1744 -241 1638 159 
Q 2116 109 2431 109 
Q 2850 109 2850 447 
L 2850 2372 
L 206 2372 
L 206 3259 
z
M 1438 2103 
L 2244 1678 
Q 1488 459 825 -353 
Q 513 -97 88 197 
Q 850 1097 1438 2103 
z
M 4869 2072 
Q 5606 1178 6319 203 
Q 5981 -16 5506 -341 
Q 4944 578 4175 1609 
L 4869 2072 
z
" transform="scale(0.015625)"/>
     <path id="MicrosoftYaHei-Bold-940" d="M 3531 5347 
Q 3644 5009 3734 4691 
L 6169 4691 
L 6169 3291 
L 5294 3291 
L 5294 3903 
L 1125 3903 
L 1125 3291 
L 250 3291 
L 250 4691 
L 2756 4691 
Q 2681 4947 2588 5234 
L 3531 5347 
z
M 3981 3759 
Q 5256 3166 6306 2578 
L 5881 1822 
Q 4763 2503 3513 3097 
L 3981 3759 
z
M 169 247 
L 2750 247 
L 2750 1341 
L 1088 1341 
L 1088 2000 
Q 816 1856 538 1722 
Q 319 2141 94 2478 
Q 1406 3016 2300 3741 
L 2881 3134 
Q 2153 2591 1347 2141 
L 5313 2141 
L 5313 1341 
L 3650 1341 
L 3650 247 
L 6231 247 
L 6231 -553 
L 169 -553 
L 169 247 
z
" transform="scale(0.015625)"/>
     <path id="MicrosoftYaHei-Bold-b4e" d="M 1088 5059 
L 1906 5347 
Q 2200 4884 2506 4334 
L 1638 4003 
Q 1356 4597 1088 5059 
z
M 6056 347 
Q 6056 -106 5904 -378 
Q 5753 -650 5422 -736 
Q 5091 -822 3950 -822 
Q 3875 -359 3750 53 
Q 4150 28 4769 28 
Q 5188 28 5188 397 
L 5188 4278 
L 2719 4278 
L 2719 5047 
L 6056 5047 
L 6056 347 
z
M 344 4522 
L 1213 4522 
L 1213 -803 
L 344 -803 
L 344 4522 
z
M 1788 3772 
L 4581 3772 
L 4581 484 
L 2575 484 
L 2575 141 
L 1788 141 
L 1788 3772 
z
M 3794 3072 
L 2575 3072 
L 2575 2478 
L 3794 2478 
L 3794 3072 
z
M 3794 1184 
L 3794 1778 
L 2575 1778 
L 2575 1184 
L 3794 1184 
z
" transform="scale(0.015625)"/>
     <path id="MicrosoftYaHei-Bold-528" d="M 2588 5347 
L 3531 5347 
L 3531 4403 
L 6300 4403 
L 6300 3578 
L 3531 3578 
L 3531 2622 
L 5700 2622 
L 5700 -809 
L 4800 -809 
L 4800 -472 
L 1588 -472 
L 1588 -809 
L 688 -809 
L 688 2622 
L 2588 2622 
L 2588 5347 
z
M 4800 1797 
L 1588 1797 
L 1588 341 
L 4800 341 
L 4800 1797 
z
" transform="scale(0.015625)"/>
     <path id="MicrosoftYaHei-Bold-8d0" d="M 5925 134 
Q 5925 -263 5744 -480 
Q 5563 -697 5189 -736 
Q 4816 -775 4206 -766 
Q 4100 -284 3956 141 
Q 4600 103 4656 103 
Q 5050 103 5050 484 
L 5050 1053 
L 3750 1053 
L 3750 -697 
L 2869 -697 
L 2869 1053 
L 1516 1053 
Q 1419 -325 988 -872 
Q 588 -584 181 -347 
Q 688 341 669 2097 
L 669 5041 
L 5925 5041 
L 5925 134 
z
M 1544 3441 
L 2869 3441 
L 2869 4216 
L 1544 4216 
L 1544 3441 
z
M 5050 4216 
L 3750 4216 
L 3750 3441 
L 5050 3441 
L 5050 4216 
z
M 1544 1859 
L 2869 1859 
L 2869 2634 
L 1544 2634 
L 1544 1859 
z
M 3750 1859 
L 5050 1859 
L 5050 2634 
L 3750 2634 
L 3750 1859 
z
" transform="scale(0.015625)"/>
     <path id="MicrosoftYaHei-Bold-8e9" d="M 1250 5303 
L 2181 5159 
L 1900 4309 
L 2963 4309 
L 2963 3091 
Q 3466 3934 3925 5316 
L 4788 5091 
Q 4650 4675 4494 4278 
L 6106 4278 
L 6034 681 
Q 6019 100 5937 -133 
Q 5856 -366 5684 -512 
Q 5513 -659 5205 -712 
Q 4897 -766 3863 -766 
Q 3769 -216 3625 178 
Q 4088 141 4609 141 
Q 4759 141 4868 175 
Q 4978 209 5048 279 
Q 5119 350 5144 437 
Q 5169 525 5184 1206 
L 5213 2484 
Q 5225 3081 5225 3453 
L 4138 3453 
Q 3931 3016 3700 2603 
Q 3403 2797 2963 2988 
L 2963 -734 
L 2094 -734 
L 2094 -284 
L 1206 -284 
L 1206 -772 
L 338 -772 
L 338 4309 
L 997 4309 
Q 1178 4922 1250 5303 
z
M 2094 3491 
L 1206 3491 
L 1206 2422 
L 2094 2422 
L 2094 3491 
z
M 1206 534 
L 2094 534 
L 2094 1603 
L 1206 1603 
L 1206 534 
z
M 3944 2703 
Q 4394 2166 4913 1397 
L 4125 872 
Q 3650 1653 3219 2203 
L 3944 2703 
z
" transform="scale(0.015625)"/>
     <path id="MicrosoftYaHei-Bold-b47" d="M 175 2816 
L 1031 2816 
L 1031 5322 
L 1900 5322 
L 1900 2816 
L 6194 2816 
L 6194 2009 
L 3825 2009 
Q 4563 728 6313 216 
Q 6031 -153 5681 -647 
Q 3713 172 2969 2009 
L 1900 2009 
L 1900 266 
L 3513 797 
Q 3494 359 3506 -22 
Q 1653 -588 1269 -903 
L 794 -103 
Q 1031 134 1031 628 
L 1031 2009 
L 175 2009 
L 175 2816 
z
M 5006 5272 
L 5663 4491 
Q 4338 3747 2863 3091 
L 2350 3766 
Q 4013 4547 5006 5272 
z
" transform="scale(0.015625)"/>
     <path id="MicrosoftYaHei-Bold-640" d="M 681 5072 
L 5869 5072 
L 5869 3234 
L 1556 3234 
Q 1550 1394 1372 640 
Q 1194 -113 763 -778 
Q 388 -334 94 -41 
Q 363 416 519 1047 
Q 675 1678 681 3091 
L 681 5072 
z
M 4994 3947 
L 4994 4359 
L 1556 4359 
L 1556 3947 
L 4994 3947 
z
M 1500 922 
L 3038 1009 
L 3038 1328 
L 1888 1266 
L 1838 1891 
L 3038 1956 
L 3038 2288 
L 1888 2234 
Q 1831 2572 1769 2872 
Q 3850 2947 5663 3066 
L 5806 2447 
L 3881 2331 
L 3881 2000 
L 5756 2103 
L 5806 1478 
L 3881 1372 
L 3881 1056 
L 6213 1191 
L 6263 522 
L 5503 478 
Q 5791 353 6131 247 
Q 6013 -397 5780 -567 
Q 5547 -738 5131 -734 
L 3863 -734 
Q 3025 -734 3038 53 
L 3038 338 
L 1544 253 
L 1500 922 
z
M 4156 -66 
L 4913 -66 
Q 5113 -66 5203 25 
Q 5294 116 5341 469 
L 3881 384 
L 3881 234 
Q 3881 -66 4156 -66 
z
" transform="scale(0.015625)"/>
    </defs>
    <use xlink:href="#MicrosoftYaHei-Bold-1a"/>
    <use xlink:href="#MicrosoftYaHei-Bold-17" transform="translate(61.671875 0)"/>
    <use xlink:href="#MicrosoftYaHei-Bold-3" transform="translate(123.34375 0)"/>
    <use xlink:href="#MicrosoftYaHei-Bold-215" transform="translate(153.125 0)"/>
    <use xlink:href="#MicrosoftYaHei-Bold-3" transform="translate(197.078125 0)"/>
    <use xlink:href="#MicrosoftYaHei-Bold-90e" transform="translate(226.859375 0)"/>
    <use xlink:href="#MicrosoftYaHei-Bold-6a4" transform="translate(326.859375 0)"/>
    <use xlink:href="#MicrosoftYaHei-Bold-7da" transform="translate(426.859375 0)"/>
    <use xlink:href="#MicrosoftYaHei-Bold-5a2" transform="translate(526.859375 0)"/>
    <use xlink:href="#MicrosoftYaHei-Bold-649" transform="translate(626.859375 0)"/>
    <use xlink:href="#MicrosoftYaHei-Bold-920" transform="translate(726.859375 0)"/>
    <use xlink:href="#MicrosoftYaHei-Bold-940" transform="translate(826.859375 0)"/>
    <use xlink:href="#MicrosoftYaHei-Bold-b4e" transform="translate(926.859375 0)"/>
    <use xlink:href="#MicrosoftYaHei-Bold-528" transform="translate(1026.859375 0)"/>
    <use xlink:href="#MicrosoftYaHei-Bold-8d0" transform="translate(1126.859375 0)"/>
    <use xlink:href="#MicrosoftYaHei-Bold-8e9" transform="translate(1226.859375 0)"/>
    <use xlink:href="#MicrosoftYaHei-Bold-b47" transform="translate(1326.859375 0)"/>
    <use xlink:href="#MicrosoftYaHei-Bold-640" transform="translate(1426.859375 0)"/>
   </g>
  </g>
  <g id="text_10">
   <!-- 模拟数据 · 可以叫我才哥 · v1.0.2 -->
   <g style="fill: #64746c" transform="translate(46.08 355.68) scale(0.09 -0.09)">
    <defs>
     <path id="MicrosoftYaHei-727" d="M 81 1991 
Q 459 2091 925 2234 
L 925 3647 
L 150 3647 
L 150 4066 
L 925 4066 
L 925 5272 
L 1400 5272 
L 1400 4066 
L 2131 4066 
L 2131 3647 
L 1400 3647 
L 1400 2384 
Q 1756 2500 2156 2634 
Q 2144 2328 2144 2153 
Q 1775 2034 1400 1906 
L 1400 -97 
Q 1400 -722 856 -747 
Q 556 -759 231 -753 
Q 200 -522 150 -234 
Q 456 -272 656 -272 
Q 925 -272 925 9 
L 925 1744 
Q 541 1613 150 1472 
L 81 1991 
z
M 5000 5216 
L 5475 5216 
Q 5463 4141 5444 3341 
Q 5403 1831 5119 1044 
Q 5797 278 6325 -391 
L 5906 -734 
Q 5425 -66 4900 588 
Q 4397 -263 3375 -872 
Q 3219 -659 3031 -478 
Q 4206 184 4644 1184 
Q 4938 1916 4963 3347 
Q 4988 4284 5000 5216 
z
M 3838 1878 
Q 3900 1616 4000 1391 
Q 3444 884 2850 316 
Q 2706 172 2563 -41 
L 2238 372 
Q 2431 597 2431 947 
L 2431 4797 
L 2906 4797 
L 2906 991 
Q 3256 1297 3838 1878 
z
M 3213 5147 
L 3619 5353 
Q 4088 4516 4425 3816 
L 3988 3572 
Q 3563 4497 3213 5147 
z
" transform="scale(0.015625)"/>
     <path id="MicrosoftYaHei-783" d="M 4175 5303 
L 4675 5228 
Q 4544 4622 4369 4097 
L 6281 4097 
L 6281 3672 
L 5888 3672 
Q 5731 1834 5088 753 
Q 5594 66 6375 -372 
Q 6175 -647 6038 -866 
Q 5275 -372 4769 309 
Q 4194 -403 3400 -928 
Q 3263 -747 3044 -534 
Q 3919 41 4463 772 
Q 3956 1647 3794 2791 
Q 3663 2559 3519 2359 
Q 3394 2541 3206 2759 
Q 3931 3803 4175 5303 
z
M 150 1697 
L 1100 1697 
Q 1238 1934 1369 2184 
L 1819 2041 
Q 1719 1866 1619 1697 
L 3150 1697 
L 3150 1291 
Q 2913 678 2431 216 
Q 2775 53 3131 -109 
L 2856 -541 
Q 2469 -322 2050 -103 
Q 1344 -609 269 -903 
Q 169 -703 56 -466 
Q 969 -259 1600 128 
Q 1063 403 475 691 
Q 675 978 863 1284 
L 150 1284 
L 150 1697 
z
M 219 3847 
L 1656 3847 
L 1656 5247 
L 2119 5247 
L 2119 3847 
L 3319 3847 
L 3319 3434 
L 2119 3434 
L 2119 3053 
L 2306 3266 
Q 2888 2841 3281 2516 
L 2981 2166 
Q 2638 2491 2119 2897 
L 2119 2184 
L 1656 2184 
L 1656 3059 
Q 1088 2466 331 2016 
Q 213 2197 63 2397 
Q 850 2822 1506 3434 
L 219 3434 
L 219 3847 
z
M 5388 3672 
L 4219 3672 
Q 4188 3591 4150 3516 
Q 4263 2191 4775 1247 
Q 5275 2159 5388 3672 
z
M 1088 834 
Q 1531 634 2000 416 
Q 2431 784 2675 1284 
L 1375 1284 
Q 1231 1053 1088 834 
z
M 3038 5091 
L 3425 4834 
Q 3081 4384 2738 4003 
Q 2594 4128 2400 4266 
Q 2725 4647 3038 5091 
z
M 381 4816 
L 738 5059 
Q 1019 4716 1319 4322 
L 931 4047 
Q 656 4453 381 4816 
z
" transform="scale(0.015625)"/>
     <path id="MicrosoftYaHei-747" d="M 2900 1334 
L 4188 1334 
L 4188 2128 
L 2731 2128 
Q 2663 206 1844 -841 
Q 1694 -647 1506 -447 
Q 2288 516 2288 2509 
L 2288 4947 
L 5975 4947 
L 5975 3134 
L 5525 3134 
L 5525 3328 
L 2738 3328 
L 2738 2553 
L 4188 2553 
L 4188 3209 
L 4638 3209 
L 4638 2553 
L 6288 2553 
L 6288 2128 
L 4638 2128 
L 4638 1334 
L 5938 1334 
L 5938 -778 
L 5488 -778 
L 5488 -416 
L 3350 -416 
L 3350 -778 
L 2900 -778 
L 2900 1334 
z
M 100 1966 
Q 544 2088 963 2213 
L 963 3641 
L 175 3641 
L 175 4091 
L 963 4091 
L 963 5284 
L 1425 5284 
L 1425 4091 
L 2106 4091 
L 2106 3641 
L 1425 3641 
L 1425 2356 
Q 1722 2450 2006 2547 
Q 2013 2266 2044 2059 
Q 1722 1956 1425 1856 
L 1425 -34 
Q 1425 -741 806 -753 
Q 613 -759 231 -747 
Q 206 -497 156 -228 
Q 500 -266 681 -266 
Q 963 -266 963 53 
L 963 1703 
Q 534 1559 163 1428 
L 100 1966 
z
M 5525 4534 
L 2738 4534 
L 2738 3741 
L 5525 3741 
L 5525 4534 
z
M 5488 922 
L 3350 922 
L 3350 -9 
L 5488 -9 
L 5488 922 
z
" transform="scale(0.015625)"/>
     <path id="MicrosoftYaHei-78" d="M 372 2113 
Q 372 2278 490 2395 
Q 609 2513 775 2513 
Q 941 2513 1061 2397 
Q 1181 2281 1181 2113 
Q 1181 1950 1064 1831 
Q 947 1713 772 1713 
Q 600 1713 486 1831 
Q 372 1950 372 2113 
z
" transform="scale(0.015625)"/>
     <path id="MicrosoftYaHei-555" d="M 813 3409 
L 3569 3409 
L 3569 941 
L 1306 941 
L 1306 497 
L 813 497 
L 813 3409 
z
M 119 4809 
L 6294 4809 
L 6294 4334 
L 5256 4334 
L 5256 103 
Q 5256 -741 4438 -747 
Q 3850 -747 3294 -741 
Q 3263 -453 3194 -172 
Q 3900 -222 4269 -222 
Q 4731 -222 4731 278 
L 4731 4334 
L 119 4334 
L 119 4809 
z
M 3075 2966 
L 1306 2966 
L 1306 1384 
L 3075 1384 
L 3075 2966 
z
" transform="scale(0.015625)"/>
     <path id="MicrosoftYaHei-459" d="M 4819 5172 
L 5331 5172 
L 5331 4047 
Q 5331 2319 4888 1303 
Q 5663 503 6350 -272 
L 5919 -666 
Q 5278 128 4641 844 
Q 3919 -253 2469 -872 
Q 2325 -678 2131 -441 
Q 3706 284 4250 1241 
Q 4831 2178 4819 4059 
L 4819 5172 
z
M 2881 1709 
Q 2900 1303 2931 1116 
Q 1431 172 1063 -72 
Q 856 -216 669 -384 
L 313 109 
Q 606 372 600 741 
L 600 5084 
L 1113 5084 
L 1113 616 
Q 1800 1028 2881 1709 
z
M 2625 5316 
Q 3044 4653 3556 3728 
L 3069 3453 
Q 2581 4416 2181 5078 
L 2625 5316 
z
" transform="scale(0.015625)"/>
     <path id="MicrosoftYaHei-552" d="M 538 4716 
L 2556 4716 
L 2556 228 
L 2069 228 
L 2069 747 
L 1025 747 
L 1025 166 
L 538 166 
L 538 4716 
z
M 5288 5272 
L 5794 5272 
L 5794 -803 
L 5288 -803 
L 5288 1213 
Q 4625 1044 4125 878 
Q 3850 784 3538 597 
L 3206 1003 
Q 3400 1216 3400 1584 
L 3400 4734 
L 3900 4734 
L 3900 1366 
Q 4475 1509 5288 1725 
L 5288 5272 
z
M 2069 4259 
L 1025 4259 
L 1025 1203 
L 2069 1203 
L 2069 4259 
z
" transform="scale(0.015625)"/>
     <path id="MicrosoftYaHei-6e9" d="M 2288 -9 
Q 3181 416 3903 972 
Q 3644 1800 3566 2978 
L 1938 2978 
L 1938 1944 
Q 2556 2053 3219 2178 
Q 3231 1897 3238 1684 
Q 2581 1559 1938 1434 
L 1938 -34 
Q 1938 -747 1256 -753 
Q 838 -759 419 -734 
Q 388 -453 313 -203 
Q 769 -266 1131 -266 
Q 1425 -272 1425 34 
L 1425 1334 
Q 806 1213 200 1091 
L 75 1628 
Q 722 1731 1425 1853 
L 1425 2978 
L 81 2978 
L 81 3441 
L 1425 3441 
L 1425 4384 
Q 931 4319 363 4253 
Q 319 4491 225 4753 
Q 1763 4897 2869 5128 
L 3019 4628 
Q 2547 4544 1938 4453 
L 1938 3441 
L 3538 3441 
Q 3494 4206 3444 5291 
L 3969 5291 
Q 3991 4291 4034 3441 
L 6319 3441 
L 6319 2978 
L 4063 2978 
Q 4134 2013 4319 1316 
Q 5009 1928 5513 2678 
L 5963 2378 
Q 5309 1494 4488 806 
Q 4663 363 4906 78 
Q 5225 -297 5463 -297 
Q 5594 -297 5650 -91 
Q 5738 234 5831 966 
Q 6094 847 6313 784 
Q 6200 84 6088 -303 
Q 5944 -803 5475 -809 
Q 4938 -803 4456 -166 
Q 4244 113 4081 488 
Q 3397 -19 2606 -403 
Q 2444 -159 2288 -9 
z
M 4469 4734 
L 4794 5066 
Q 5344 4647 5919 4134 
L 5538 3747 
Q 5025 4266 4469 4734 
z
" transform="scale(0.015625)"/>
     <path id="MicrosoftYaHei-6f5" d="M 113 284 
Q 2638 1597 3722 3547 
L 294 3547 
L 294 4034 
L 4088 4034 
L 4088 5297 
L 4613 5297 
L 4613 4034 
L 6231 4034 
L 6231 3547 
L 4613 3547 
L 4613 209 
Q 4613 -678 3775 -678 
Q 3306 -678 2619 -666 
Q 2581 -391 2519 -72 
Q 3125 -134 3650 -134 
Q 4088 -134 4088 347 
L 4088 3253 
Q 2941 1172 481 -172 
Q 344 3 113 284 
z
" transform="scale(0.015625)"/>
     <path id="MicrosoftYaHei-582" d="M 131 2328 
L 6288 2328 
L 6288 1916 
L 5400 1916 
L 5400 34 
Q 5400 -722 4663 -728 
Q 4238 -728 3681 -722 
Q 3644 -466 3588 -191 
Q 4200 -241 4519 -241 
Q 4913 -241 4913 184 
L 4913 1916 
L 131 1916 
L 131 2328 
z
M 863 1447 
L 3806 1447 
L 3806 47 
L 1319 47 
L 1319 -228 
L 863 -228 
L 863 1447 
z
M 906 4147 
L 3788 4147 
L 3788 2666 
L 3331 2666 
L 3331 2816 
L 1363 2816 
L 1363 2666 
L 906 2666 
L 906 4147 
z
M 238 4997 
L 6213 4997 
L 6213 4584 
L 5375 4584 
L 5375 2566 
L 4888 2566 
L 4888 4584 
L 238 4584 
L 238 4997 
z
M 3350 434 
L 3350 1059 
L 1319 1059 
L 1319 434 
L 3350 434 
z
M 3331 3759 
L 1363 3759 
L 1363 3203 
L 3331 3203 
L 3331 3759 
z
" transform="scale(0.015625)"/>
     <path id="MicrosoftYaHei-5c" d="M 3331 3456 
L 1963 0 
L 1344 0 
L 44 3456 
L 713 3456 
L 1556 988 
Q 1659 691 1678 491 
L 1694 491 
Q 1725 753 1803 975 
L 2688 3456 
L 3331 3456 
z
" transform="scale(0.015625)"/>
     <path id="MicrosoftYaHei-14" d="M 372 322 
Q 372 491 487 606 
Q 603 722 775 722 
Q 950 722 1065 605 
Q 1181 488 1181 322 
Q 1181 159 1065 42 
Q 950 -75 772 -75 
Q 600 -75 486 42 
Q 372 159 372 322 
z
" transform="scale(0.015625)"/>
    </defs>
    <use xlink:href="#MicrosoftYaHei-825"/>
    <use xlink:href="#MicrosoftYaHei-727" transform="translate(100 0)"/>
    <use xlink:href="#MicrosoftYaHei-783" transform="translate(200 0)"/>
    <use xlink:href="#MicrosoftYaHei-747" transform="translate(300 0)"/>
    <use xlink:href="#MicrosoftYaHei-3" transform="translate(400 0)"/>
    <use xlink:href="#MicrosoftYaHei-78" transform="translate(429.59375 0)"/>
    <use xlink:href="#MicrosoftYaHei-3" transform="translate(453.671875 0)"/>
    <use xlink:href="#MicrosoftYaHei-555" transform="translate(483.265625 0)"/>
    <use xlink:href="#MicrosoftYaHei-459" transform="translate(583.265625 0)"/>
    <use xlink:href="#MicrosoftYaHei-552" transform="translate(683.265625 0)"/>
    <use xlink:href="#MicrosoftYaHei-6e9" transform="translate(783.265625 0)"/>
    <use xlink:href="#MicrosoftYaHei-6f5" transform="translate(883.265625 0)"/>
    <use xlink:href="#MicrosoftYaHei-582" transform="translate(983.265625 0)"/>
    <use xlink:href="#MicrosoftYaHei-3" transform="translate(1083.265625 0)"/>
    <use xlink:href="#MicrosoftYaHei-78" transform="translate(1112.859375 0)"/>
    <use xlink:href="#MicrosoftYaHei-3" transform="translate(1136.9375 0)"/>
    <use xlink:href="#MicrosoftYaHei-5c" transform="translate(1166.53125 0)"/>
    <use xlink:href="#MicrosoftYaHei-17" transform="translate(1219.015625 0)"/>
    <use xlink:href="#MicrosoftYaHei-14" transform="translate(1277.65625 0)"/>
    <use xlink:href="#MicrosoftYaHei-16" transform="translate(1301.734375 0)"/>
    <use xlink:href="#MicrosoftYaHei-14" transform="translate(1360.375 0)"/>
    <use xlink:href="#MicrosoftYaHei-18" transform="translate(1384.453125 0)"/>
   </g>
  </g>
 </g>
 <defs>
  <clipPath id="pba9e415610">
   <rect x="12.96" y="62.862188" width="550.08" height="269.777812"/>
  </clipPath>
 </defs>
</svg>
