<?xml version="1.0" encoding="utf-8" standalone="no"?>
<!DOCTYPE svg PUBLIC "-//W3C//DTD SVG 1.1//EN"
  "http://www.w3.org/Graphics/SVG/1.1/DTD/svg11.dtd">
<svg xmlns:xlink="http://www.w3.org/1999/xlink" width="648pt" height="432pt" viewBox="0 0 648 432" xmlns="http://www.w3.org/2000/svg" version="1.1">
 <metadata>
  <rdf:RDF xmlns:dc="http://purl.org/dc/elements/1.1/" xmlns:cc="http://creativecommons.org/ns#" xmlns:rdf="http://www.w3.org/1999/02/22-rdf-syntax-ns#">
   <cc:Work>
    <dc:type rdf:resource="http://purl.org/dc/dcmitype/StillImage"/>
    <dc:date>2026-09-13T13:19:26.260626</dc:date>
    <dc:format>image/svg+xml</dc:format>
    <dc:creator>
     <cc:Agent>
      <dc:title>Matplotlib v3.11.2, https://matplotlib.org/</dc:title>
     </cc:Agent>
    </dc:creator>
   </cc:Work>
  </rdf:RDF>
 </metadata>
 <defs>
  <style type="text/css">*{stroke-linejoin: round; stroke-linecap: butt}</style>
 </defs>
 <g id="figure_1">
  <g id="patch_1">
   <path d="M 0 432 
L 648 432 
L 648 0 
L 0 0 
z
" style="fill: #ffffff"/>
  </g>
  <g id="axes_1">
   <g id="patch_2">
    <path d="M 58.781016 243.102675 
L 635.04 243.102675 
L 635.04 67.489219 
L 58.781016 67.489219 
z
" style="fill: #ffffff"/>
   </g>
   <g id="matplotlib.axis_1">
    <g id="xtick_1">
     <g id="line2d_1">
      <path d="M 84.974606 243.102675 
L 84.974606 67.489219 
" clip-path="url(#p25b8b0aad4)" style="fill: none; stroke: #cccccc; stroke-linecap: round"/>
     </g>
    </g>
    <g id="xtick_2">
     <g id="line2d_2">
      <path d="M 177.514835 243.102675 
L 177.514835 67.489219 
" clip-path="url(#p25b8b0aad4)" style="fill: none; stroke: #cccccc; stroke-linecap: round"/>
     </g>
    </g>
    <g id="xtick_3">
     <g id="line2d_3">
      <path d="M 273.19202 243.102675 
L 273.19202 67.489219 
" clip-path="url(#p25b8b0aad4)" style="fill: none; stroke: #cccccc; stroke-linecap: round"/>
     </g>
    </g>
    <g id="xtick_4">
     <g id="line2d_4">
      <path d="M 368.869206 243.102675 
L 368.869206 67.489219 
" clip-path="url(#p25b8b0aad4)" style="fill: none; stroke: #cccccc; stroke-linecap: round"/>
     </g>
    </g>
    <g id="xtick_5">
     <g id="line2d_5">
      <path d="M 466.11487 243.102675 
L 466.11487 67.489219 
" clip-path="url(#p25b8b0aad4)" style="fill: none; stroke: #cccccc; stroke-linecap: round"/>
     </g>
    </g>
    <g id="xtick_6">
     <g id="line2d_6">
      <path d="M 561.792056 243.102675 
L 561.792056 67.489219 
" clip-path="url(#p25b8b0aad4)" style="fill: none; stroke: #cccccc; stroke-linecap: round"/>
     </g>
    </g>
   </g>
   <g id="matplotlib.axis_2">
    <g id="ytick_1">
     <g id="line2d_7">
      <path d="M 58.781016 202.739178 
L 635.04 202.739178 
" clip-path="url(#p25b8b0aad4)" style="fill: none; stroke: #cccccc; stroke-linecap: round"/>
     </g>
     <g id="text_1">
      <!-- 40 -->
      <g style="fill: #262626" transform="translate(36.380078 207.205243) scale(0.11 -0.11)">
       <defs>
        <path id="MicrosoftYaHei-1a" d="M 2906 4841 
L 2906 1644 
L 3631 1644 
L 3631 1138 
L 2906 1138 
L 2906 0 
L 2313 0 
L 2313 1138 
L 53 1138 
L 53 1616 
Q 656 2294 1265 3178 
Q 1875 4063 2272 4841 
L 2906 4841 
z
M 741 1644 
L 2313 1644 
L 2313 3950 
Q 1988 3366 1616 2817 
Q 1244 2269 741 1644 
z
" transform="scale(0.015625)"/>
        <path id="MicrosoftYaHei-16" d="M 284 2325 
Q 284 3606 709 4264 
Q 1134 4922 1941 4922 
Q 3478 4922 3478 2441 
Q 3478 1216 3045 567 
Q 2613 -81 1831 -81 
Q 1094 -81 689 534 
Q 284 1150 284 2325 
z
M 909 2353 
Q 909 425 1888 425 
Q 2850 425 2850 2384 
Q 2850 4413 1906 4413 
Q 909 4413 909 2353 
z
" transform="scale(0.015625)"/>
       </defs>
       <use xlink:href="#MicrosoftYaHei-1a"/>
       <use xlink:href="#MicrosoftYaHei-16" transform="translate(58.640625 0)"/>
      </g>
     </g>
    </g>
    <g id="ytick_2">
     <g id="line2d_8">
      <path d="M 58.781016 155.69595 
L 635.04 155.69595 
" clip-path="url(#p25b8b0aad4)" style="fill: none; stroke: #cccccc; stroke-linecap: round"/>
     </g>
     <g id="text_2">
      <!-- 50 -->
      <g style="fill: #262626" transform="translate(36.380078 160.162014) scale(0.11 -0.11)">
       <defs>
        <path id="MicrosoftYaHei-1b" d="M 3294 1494 
Q 3294 784 2823 350 
Q 2353 -84 1559 -84 
Q 878 -84 544 119 
L 544 744 
Q 1034 425 1544 425 
Q 2050 425 2361 704 
Q 2672 984 2672 1447 
Q 2672 1909 2348 2167 
Q 2025 2425 1434 2425 
Q 978 2425 613 2384 
L 791 4841 
L 3053 4841 
L 3053 4303 
L 1306 4303 
L 1206 2931 
L 1647 2950 
Q 2416 2950 2855 2567 
Q 3294 2184 3294 1494 
z
" transform="scale(0.015625)"/>
       </defs>
       <use xlink:href="#MicrosoftYaHei-1b"/>
       <use xlink:href="#MicrosoftYaHei-16" transform="translate(58.640625 0)"/>
      </g>
     </g>
    </g>
    <g id="ytick_3">
     <g id="line2d_9">
      <path d="M 58.781016 108.652721 
L 635.04 108.652721 
" clip-path="url(#p25b8b0aad4)" style="fill: none; stroke: #cccccc; stroke-linecap: round"/>
     </g>
     <g id="text_3">
      <!-- 60 -->
      <g style="fill: #262626" transform="translate(36.380078 113.118785) scale(0.11 -0.11)">
       <defs>
        <path id="MicrosoftYaHei-1c" d="M 3181 4219 
Q 2803 4413 2391 4413 
Q 1763 4413 1381 3866 
Q 1000 3319 994 2372 
L 1009 2372 
Q 1353 3038 2106 3038 
Q 2734 3038 3109 2628 
Q 3484 2219 3484 1541 
Q 3484 831 3051 375 
Q 2619 -81 1947 -81 
Q 1209 -81 789 495 
Q 369 1072 369 2131 
Q 369 3413 920 4167 
Q 1472 4922 2372 4922 
Q 2888 4922 3181 4781 
L 3181 4219 
z
M 1031 1584 
Q 1031 1106 1286 765 
Q 1541 425 1963 425 
Q 2363 425 2613 719 
Q 2863 1013 2863 1475 
Q 2863 1975 2627 2253 
Q 2391 2531 1956 2531 
Q 1544 2531 1287 2250 
Q 1031 1969 1031 1584 
z
" transform="scale(0.015625)"/>
       </defs>
       <use xlink:href="#MicrosoftYaHei-1c"/>
       <use xlink:href="#MicrosoftYaHei-16" transform="translate(58.640625 0)"/>
      </g>
     </g>
    </g>
    <g id="text_4">
     <!-- 传感器月均读数（单位） -->
     <g style="fill: #262626" transform="translate(29.339063 221.295947) rotate(-90) scale(0.12 -0.12)">
      <defs>
       <path id="MicrosoftYaHei-46e" d="M 2413 684 
L 2681 1053 
Q 3397 666 4056 278 
L 5269 1472 
L 2606 1472 
L 2606 1916 
Q 2731 2306 2847 2691 
L 1869 2691 
L 1869 3128 
L 2975 3128 
Q 3097 3550 3203 3959 
L 2175 3959 
L 2175 4397 
L 3316 4397 
Q 3425 4831 3519 5253 
L 4056 5253 
Q 3959 4838 3847 4397 
L 6050 4397 
L 6050 3959 
L 3734 3959 
Q 3625 3553 3503 3128 
L 6300 3128 
L 6300 2691 
L 3378 2691 
Q 3266 2306 3144 1909 
L 5906 1909 
L 5906 1453 
L 4481 22 
Q 4869 -209 5238 -447 
L 4913 -872 
Q 3594 34 2413 684 
z
M 88 2241 
Q 963 3528 1469 5297 
L 1975 5147 
Q 1741 4422 1475 3791 
L 1475 -803 
L 981 -803 
L 981 2763 
Q 663 2175 306 1691 
Q 213 1959 88 2241 
z
" transform="scale(0.015625)"/>
       <path id="MicrosoftYaHei-6df" d="M 3531 1422 
Q 4013 1741 4388 2131 
Q 4022 2909 3944 4147 
L 1213 4147 
L 1213 3322 
Q 1213 1803 463 872 
Q 331 1134 138 1347 
Q 763 2034 763 3328 
L 763 4547 
L 3922 4547 
Q 3903 4928 3900 5284 
L 4363 5284 
Q 4363 4928 4378 4547 
L 6200 4547 
L 6200 4147 
L 4400 4147 
Q 4466 3184 4728 2531 
Q 5150 3088 5394 3772 
L 5819 3559 
Q 5456 2741 4947 2103 
Q 5059 1922 5194 1778 
Q 5344 1622 5475 1622 
Q 5594 1622 5669 1822 
Q 5763 2084 5856 2522 
Q 6019 2434 6319 2322 
Q 6175 1766 6069 1503 
Q 5888 1066 5538 1066 
Q 5250 1066 4925 1366 
Q 4756 1522 4616 1725 
Q 4278 1375 3888 1091 
Q 3738 1259 3531 1422 
z
M 1638 2891 
L 3563 2891 
L 3563 1541 
L 2063 1541 
L 2063 1366 
L 1638 1366 
L 1638 2891 
z
M 1713 997 
L 2188 997 
L 2188 134 
Q 2188 -253 2588 -253 
L 3713 -253 
Q 4194 -253 4263 109 
Q 4313 316 4375 778 
Q 4588 691 4869 591 
Q 4788 166 4706 -103 
Q 4556 -691 3813 -691 
L 2488 -691 
Q 1713 -691 1713 78 
L 1713 997 
z
M 1444 3697 
L 3719 3697 
L 3719 3322 
L 1444 3322 
L 1444 3697 
z
M 844 1028 
L 1288 853 
Q 969 47 594 -534 
Q 438 -441 175 -297 
Q 581 291 844 1028 
z
M 3138 1916 
L 3138 2516 
L 2063 2516 
L 2063 1916 
L 3138 1916 
z
M 5113 634 
L 5463 884 
Q 5863 422 6275 -166 
L 5863 -459 
Q 5563 34 5113 634 
z
M 2706 1072 
L 3044 1328 
Q 3456 891 3781 491 
L 3388 191 
Q 3050 678 2706 1072 
z
M 5656 4866 
L 5350 4559 
Q 5081 4809 4763 5066 
L 5038 5353 
Q 5363 5116 5656 4866 
z
" transform="scale(0.015625)"/>
       <path id="MicrosoftYaHei-598" d="M 300 2691 
L 2825 2691 
Q 2922 2925 2950 3234 
L 3400 3172 
Q 3363 2909 3291 2691 
L 4653 2691 
Q 4403 2872 4125 3047 
L 4381 3328 
Q 4794 3084 5125 2841 
L 4984 2691 
L 6150 2691 
L 6150 2278 
L 3738 2278 
Q 4459 1572 6300 1609 
Q 6150 1353 6044 1128 
Q 5878 1141 5725 1156 
L 5725 -753 
L 5288 -753 
L 5288 -409 
L 3950 -409 
L 3950 -747 
L 3513 -747 
L 3513 1184 
L 5503 1184 
Q 3716 1425 3219 2278 
L 3106 2278 
Q 2756 1534 838 1184 
L 2838 1184 
L 2838 -747 
L 2400 -747 
L 2400 -409 
L 1081 -409 
L 1081 -753 
L 644 -753 
L 644 1147 
Q 478 1116 300 1084 
Q 206 1272 56 1528 
Q 2144 1797 2563 2278 
L 300 2278 
L 300 2691 
z
M 3506 4966 
L 5719 4966 
L 5719 3122 
L 5281 3122 
L 5281 3341 
L 3944 3341 
L 3944 3147 
L 3506 3147 
L 3506 4966 
z
M 638 4966 
L 2831 4966 
L 2831 3147 
L 2394 3147 
L 2394 3341 
L 1075 3341 
L 1075 3084 
L 638 3084 
L 638 4966 
z
M 5281 4578 
L 3944 4578 
L 3944 3728 
L 5281 3728 
L 5281 4578 
z
M 2394 4578 
L 1075 4578 
L 1075 3728 
L 2394 3728 
L 2394 4578 
z
M 5288 797 
L 3950 797 
L 3950 -22 
L 5288 -22 
L 5288 797 
z
M 2400 797 
L 1081 797 
L 1081 -22 
L 2400 -22 
L 2400 797 
z
" transform="scale(0.015625)"/>
       <path id="MicrosoftYaHei-7c3" d="M 1603 1284 
Q 1463 78 663 -897 
Q 463 -703 231 -522 
Q 838 134 1044 1041 
Q 1188 1709 1188 2891 
L 1188 5053 
L 5363 5053 
L 5363 178 
Q 5363 -747 4481 -747 
Q 4113 -747 3531 -734 
Q 3500 -509 3438 -209 
Q 4013 -247 4344 -247 
Q 4850 -247 4850 247 
L 4850 1284 
L 1603 1284 
z
M 1653 1741 
L 4850 1741 
L 4850 2941 
L 1700 2941 
Q 1700 2316 1653 1741 
z
M 1700 4584 
L 1700 3397 
L 4850 3397 
L 4850 4584 
L 1700 4584 
z
" transform="scale(0.015625)"/>
       <path id="MicrosoftYaHei-5ae" d="M 2244 2803 
Q 2931 3953 3338 5322 
L 3838 5172 
Q 3691 4744 3531 4347 
L 6013 4347 
Q 5925 1053 5875 297 
Q 5831 -697 4806 -697 
Q 4188 -697 3706 -672 
Q 3669 -422 3606 -141 
L 3625 -141 
Q 4250 -209 4775 -209 
Q 5350 -209 5394 378 
Q 5456 1447 5513 3891 
L 3341 3891 
Q 3028 3172 2675 2572 
Q 2481 2691 2244 2803 
z
M 81 428 
Q 559 600 1006 769 
L 1006 3253 
L 169 3253 
L 169 3697 
L 1006 3697 
L 1006 5259 
L 1469 5259 
L 1469 3697 
L 2281 3697 
L 2281 3253 
L 1469 3253 
L 1469 947 
Q 1922 1125 2338 1303 
Q 2350 991 2369 784 
Q 1363 403 250 -53 
L 81 428 
z
M 2513 853 
Q 3769 1353 5119 1934 
Q 5150 1641 5188 1434 
Q 4031 947 2706 359 
L 2513 853 
z
M 3138 2909 
L 3481 3216 
Q 4025 2716 4531 2216 
L 4125 1859 
Q 3644 2409 3138 2909 
z
" transform="scale(0.015625)"/>
       <path id="MicrosoftYaHei-aaf" d="M 1844 3516 
L 3750 3516 
L 3750 4141 
L 2075 4141 
L 2075 4578 
L 3750 4578 
L 3750 5303 
L 4225 5303 
L 4225 4578 
L 6013 4578 
L 6013 4141 
L 4225 4141 
L 4225 3516 
L 6138 3516 
L 6063 2291 
Q 5838 2316 5581 2322 
L 5650 3078 
L 1844 3078 
L 1844 3516 
z
M 1794 1291 
L 4063 1291 
Q 4188 1803 4156 2916 
L 4631 2916 
Q 4650 1741 4556 1291 
L 6219 1291 
L 6219 853 
L 4463 853 
Q 4419 734 4369 634 
Q 5300 134 6200 -391 
L 5888 -816 
Q 4950 -222 4125 247 
Q 3563 -434 2044 -884 
Q 1906 -666 1731 -434 
Q 3544 53 3950 853 
L 1794 853 
L 1794 1291 
z
M 2025 672 
Q 2038 384 2069 128 
Q 1381 -316 913 -691 
L 625 -278 
Q 838 -91 838 259 
L 838 2678 
L 88 2678 
L 88 3128 
L 1306 3128 
L 1306 166 
Q 1619 378 2025 672 
z
M 813 5147 
Q 1288 4672 1763 4141 
L 1331 3784 
Q 894 4334 431 4834 
L 813 5147 
z
M 2056 1997 
L 2281 2334 
Q 2869 2053 3425 1728 
L 3181 1353 
Q 2675 1678 2056 1997 
z
M 2513 2678 
L 2744 3022 
Q 3331 2734 3869 2434 
L 3619 2053 
Q 3088 2384 2513 2678 
z
" transform="scale(0.015625)"/>
       <path id="MicrosoftYaHei-783" d="M 4175 5303 
L 4675 5228 
Q 4544 4622 4369 4097 
L 6281 4097 
L 6281 3672 
L 5888 3672 
Q 5731 1834 5088 753 
Q 5594 66 6375 -372 
Q 6175 -647 6038 -866 
Q 5275 -372 4769 309 
Q 4194 -403 3400 -928 
Q 3263 -747 3044 -534 
Q 3919 41 4463 772 
Q 3956 1647 3794 2791 
Q 3663 2559 3519 2359 
Q 3394 2541 3206 2759 
Q 3931 3803 4175 5303 
z
M 150 1697 
L 1100 1697 
Q 1238 1934 1369 2184 
L 1819 2041 
Q 1719 1866 1619 1697 
L 3150 1697 
L 3150 1291 
Q 2913 678 2431 216 
Q 2775 53 3131 -109 
L 2856 -541 
Q 2469 -322 2050 -103 
Q 1344 -609 269 -903 
Q 169 -703 56 -466 
Q 969 -259 1600 128 
Q 1063 403 475 691 
Q 675 978 863 1284 
L 150 1284 
L 150 1697 
z
M 219 3847 
L 1656 3847 
L 1656 5247 
L 2119 5247 
L 2119 3847 
L 3319 3847 
L 3319 3434 
L 2119 3434 
L 2119 3053 
L 2306 3266 
Q 2888 2841 3281 2516 
L 2981 2166 
Q 2638 2491 2119 2897 
L 2119 2184 
L 1656 2184 
L 1656 3059 
Q 1088 2466 331 2016 
Q 213 2197 63 2397 
Q 850 2822 1506 3434 
L 219 3434 
L 219 3847 
z
M 5388 3672 
L 4219 3672 
Q 4188 3591 4150 3516 
Q 4263 2191 4775 1247 
Q 5275 2159 5388 3672 
z
M 1088 834 
Q 1531 634 2000 416 
Q 2431 784 2675 1284 
L 1375 1284 
Q 1231 1053 1088 834 
z
M 3038 5091 
L 3425 4834 
Q 3081 4384 2738 4003 
Q 2594 4128 2400 4266 
Q 2725 4647 3038 5091 
z
M 381 4816 
L 738 5059 
Q 1019 4716 1319 4322 
L 931 4047 
Q 656 4453 381 4816 
z
" transform="scale(0.015625)"/>
       <path id="MicrosoftYaHei-367" d="M 5288 -1100 
Q 4172 119 4172 1850 
Q 4172 3603 5288 4838 
L 5825 4838 
Q 4716 3572 4716 1856 
Q 4716 166 5819 -1100 
L 5288 -1100 
z
" transform="scale(0.015625)"/>
       <path id="MicrosoftYaHei-525" d="M 125 909 
L 2956 909 
L 2956 1616 
L 1225 1616 
L 1225 1322 
L 750 1322 
L 750 4353 
L 2047 4353 
Q 1747 4703 1400 5072 
L 1756 5366 
Q 2219 4922 2569 4547 
L 2338 4353 
L 3803 4353 
Q 4147 4809 4500 5347 
L 5000 5078 
Q 4678 4688 4378 4353 
L 5656 4353 
L 5656 1322 
L 5181 1322 
L 5181 1616 
L 3444 1616 
L 3444 909 
L 6275 909 
L 6275 459 
L 3444 459 
L 3444 -859 
L 2956 -859 
L 2956 459 
L 125 459 
L 125 909 
z
M 3444 2053 
L 5181 2053 
L 5181 2778 
L 3444 2778 
L 3444 2053 
z
M 1225 2053 
L 2956 2053 
L 2956 2778 
L 1225 2778 
L 1225 2053 
z
M 5181 3916 
L 3444 3916 
L 3444 3203 
L 5181 3203 
L 5181 3916 
z
M 1225 3203 
L 2956 3203 
L 2956 3916 
L 1225 3916 
L 1225 3203 
z
" transform="scale(0.015625)"/>
       <path id="MicrosoftYaHei-479" d="M 1788 -59 
L 4228 -59 
Q 4678 1144 5269 3372 
L 5831 3203 
Q 5453 2044 4756 -59 
L 6319 -59 
L 6319 -522 
L 1788 -522 
L 1788 -59 
z
M 81 2291 
Q 975 3641 1431 5322 
L 1963 5191 
Q 1703 4397 1406 3709 
L 1406 -853 
L 938 -853 
L 938 2731 
Q 644 2181 319 1716 
Q 231 1953 81 2291 
z
M 1919 4191 
L 4122 4191 
Q 3844 4659 3506 5059 
L 3931 5353 
Q 4206 5034 4613 4497 
L 4150 4191 
L 6206 4191 
L 6206 3728 
L 1919 3728 
L 1919 4191 
z
M 2769 3309 
Q 3181 2184 3669 584 
L 3150 434 
Q 2725 1966 2294 3147 
L 2769 3309 
z
" transform="scale(0.015625)"/>
       <path id="MicrosoftYaHei-368" d="M 1113 -1100 
L 575 -1100 
Q 1684 163 1684 1888 
Q 1684 3581 581 4838 
L 1113 4838 
Q 2222 3628 2222 1888 
Q 2222 128 1113 -1100 
z
" transform="scale(0.015625)"/>
      </defs>
      <use xlink:href="#MicrosoftYaHei-46e"/>
      <use xlink:href="#MicrosoftYaHei-6df" transform="translate(100 0)"/>
      <use xlink:href="#MicrosoftYaHei-598" transform="translate(200 0)"/>
      <use xlink:href="#MicrosoftYaHei-7c3" transform="translate(300 0)"/>
      <use xlink:href="#MicrosoftYaHei-5ae" transform="translate(400 0)"/>
      <use xlink:href="#MicrosoftYaHei-aaf" transform="translate(500 0)"/>
      <use xlink:href="#MicrosoftYaHei-783" transform="translate(600 0)"/>
      <use xlink:href="#MicrosoftYaHei-367" transform="translate(700 0)"/>
      <use xlink:href="#MicrosoftYaHei-525" transform="translate(800 0)"/>
      <use xlink:href="#MicrosoftYaHei-479" transform="translate(900 0)"/>
      <use xlink:href="#MicrosoftYaHei-368" transform="translate(1000 0)"/>
     </g>
    </g>
   </g>
   <g id="line2d_10">
    <path d="M 84.974606 75.471649 
L 133.597438 92.956108 
L 177.514835 128.131307 
L 226.137667 176.078987 
L 273.19202 220.635737 
M 368.869206 235.120245 
L 417.492038 215.383917 
M 513.169224 140.801184 
L 561.792056 99.854825 
L 608.84641 77.014415 
" clip-path="url(#p25b8b0aad4)" style="fill: none; stroke: #188568; stroke-width: 2; stroke-linecap: round"/>
    <defs>
     <path id="md5a31e82bb" d="M 0 3 
C 0.795609 3 1.55874 2.683901 2.12132 2.12132 
C 2.683901 1.55874 3 0.795609 3 0 
C 3 -0.795609 2.683901 -1.55874 2.12132 -2.12132 
C 1.55874 -2.683901 0.795609 -3 0 -3 
C -0.795609 -3 -1.55874 -2.683901 -2.12132 -2.12132 
C -2.683901 -1.55874 -3 -0.795609 -3 0 
C -3 0.795609 -2.683901 1.55874 -2.12132 2.12132 
C -1.55874 2.683901 -0.795609 3 0 3 
z
" style="stroke: #188568"/>
    </defs>
    <g clip-path="url(#p25b8b0aad4)">
     <use xlink:href="#md5a31e82bb" x="84.974606" y="75.471649" style="fill: #188568; stroke: #188568"/>
     <use xlink:href="#md5a31e82bb" x="133.597438" y="92.956108" style="fill: #188568; stroke: #188568"/>
     <use xlink:href="#md5a31e82bb" x="177.514835" y="128.131307" style="fill: #188568; stroke: #188568"/>
     <use xlink:href="#md5a31e82bb" x="226.137667" y="176.078987" style="fill: #188568; stroke: #188568"/>
     <use xlink:href="#md5a31e82bb" x="273.19202" y="220.635737" style="fill: #188568; stroke: #188568"/>
     <use xlink:href="#md5a31e82bb" x="368.869206" y="235.120245" style="fill: #188568; stroke: #188568"/>
     <use xlink:href="#md5a31e82bb" x="417.492038" y="215.383917" style="fill: #188568; stroke: #188568"/>
     <use xlink:href="#md5a31e82bb" x="513.169224" y="140.801184" style="fill: #188568; stroke: #188568"/>
     <use xlink:href="#md5a31e82bb" x="561.792056" y="99.854825" style="fill: #188568; stroke: #188568"/>
     <use xlink:href="#md5a31e82bb" x="608.84641" y="77.014415" style="fill: #188568; stroke: #188568"/>
    </g>
   </g>
   <g id="patch_3">
    <path d="M 58.781016 243.102675 
L 58.781016 67.489219 
" style="fill: none; stroke: #cccccc; stroke-width: 1.25; stroke-linejoin: miter; stroke-linecap: square"/>
   </g>
   <g id="patch_4">
    <path d="M 58.781016 243.102675 
L 635.04 243.102675 
" style="fill: none; stroke: #cccccc; stroke-width: 1.25; stroke-linejoin: miter; stroke-linecap: square"/>
   </g>
  </g>
  <g id="axes_2">
   <g id="patch_5">
    <path d="M 58.781016 343.869403 
L 635.04 343.869403 
L 635.04 256.062675 
L 58.781016 256.062675 
z
" style="fill: #ffffff"/>
   </g>
   <g id="matplotlib.axis_3">
    <g id="xtick_7">
     <g id="line2d_11">
      <path d="M 99.773244 343.869403 
L 99.773244 256.062675 
" clip-path="url(#p983b4877e8)" style="fill: none; stroke: #cccccc; stroke-linecap: round"/>
     </g>
     <g id="text_5">
      <!-- 2025-01 -->
      <g style="fill: #262626" transform="translate(60.740222 382.83587) rotate(-30) scale(0.11 -0.11)">
       <defs>
        <path id="MicrosoftYaHei-18" d="M 2666 3572 
Q 2666 3963 2419 4186 
Q 2172 4409 1747 4409 
Q 1447 4409 1140 4256 
Q 834 4103 569 3819 
L 569 4413 
Q 806 4659 1107 4790 
Q 1409 4922 1816 4922 
Q 2472 4922 2872 4570 
Q 3272 4219 3272 3619 
Q 3272 3084 3026 2693 
Q 2781 2303 2188 1894 
Q 1581 1475 1376 1294 
Q 1172 1113 1090 947 
Q 1009 781 1009 544 
L 3416 544 
L 3416 0 
L 372 0 
L 372 241 
Q 372 659 486 951 
Q 600 1244 862 1520 
Q 1125 1797 1681 2184 
Q 2250 2584 2458 2886 
Q 2666 3188 2666 3572 
z
" transform="scale(0.015625)"/>
        <path id="MicrosoftYaHei-13" d="M 2328 1681 
L 488 1681 
L 488 2153 
L 2328 2153 
L 2328 1681 
z
" transform="scale(0.015625)"/>
        <path id="MicrosoftYaHei-17" d="M 1781 0 
L 1781 4141 
Q 1638 3997 1295 3819 
Q 953 3641 663 3569 
L 663 4169 
Q 1047 4275 1484 4508 
Q 1922 4741 2156 4947 
L 2388 4947 
L 2388 0 
L 1781 0 
z
" transform="scale(0.015625)"/>
       </defs>
       <use xlink:href="#MicrosoftYaHei-18"/>
       <use xlink:href="#MicrosoftYaHei-16" transform="translate(58.640625 0)"/>
       <use xlink:href="#MicrosoftYaHei-18" transform="translate(117.28125 0)"/>
       <use xlink:href="#MicrosoftYaHei-1b" transform="translate(175.921875 0)"/>
       <use xlink:href="#MicrosoftYaHei-13" transform="translate(234.5625 0)"/>
       <use xlink:href="#MicrosoftYaHei-16" transform="translate(277.828125 0)"/>
       <use xlink:href="#MicrosoftYaHei-17" transform="translate(336.46875 0)"/>
      </g>
     </g>
    </g>
    <g id="xtick_8">
     <g id="line2d_12">
      <path d="M 187.085212 343.869403 
L 187.085212 256.062675 
" clip-path="url(#p983b4877e8)" style="fill: none; stroke: #cccccc; stroke-linecap: round"/>
     </g>
     <g id="text_6">
      <!-- 2025-03 -->
      <g style="fill: #262626" transform="translate(148.05219 382.83587) rotate(-30) scale(0.11 -0.11)">
       <defs>
        <path id="MicrosoftYaHei-19" d="M 447 809 
Q 944 425 1569 425 
Q 2069 425 2361 670 
Q 2653 916 2653 1328 
Q 2653 2247 1338 2247 
L 934 2247 
L 934 2753 
L 1319 2753 
Q 2484 2753 2484 3616 
Q 2484 4413 1594 4413 
Q 1084 4413 634 4069 
L 634 4647 
Q 1109 4922 1744 4922 
Q 2363 4922 2738 4598 
Q 3113 4275 3113 3759 
Q 3113 2809 2144 2538 
L 2144 2525 
Q 2669 2469 2973 2155 
Q 3278 1841 3278 1372 
Q 3278 719 2808 319 
Q 2338 -81 1556 -81 
Q 869 -81 447 175 
L 447 809 
z
" transform="scale(0.015625)"/>
       </defs>
       <use xlink:href="#MicrosoftYaHei-18"/>
       <use xlink:href="#MicrosoftYaHei-16" transform="translate(58.640625 0)"/>
       <use xlink:href="#MicrosoftYaHei-18" transform="translate(117.28125 0)"/>
       <use xlink:href="#MicrosoftYaHei-1b" transform="translate(175.921875 0)"/>
       <use xlink:href="#MicrosoftYaHei-13" transform="translate(234.5625 0)"/>
       <use xlink:href="#MicrosoftYaHei-16" transform="translate(277.828125 0)"/>
       <use xlink:href="#MicrosoftYaHei-19" transform="translate(336.46875 0)"/>
      </g>
     </g>
    </g>
    <g id="xtick_9">
     <g id="line2d_13">
      <path d="M 277.356907 343.869403 
L 277.356907 256.062675 
" clip-path="url(#p983b4877e8)" style="fill: none; stroke: #cccccc; stroke-linecap: round"/>
     </g>
     <g id="text_7">
      <!-- 2025-05 -->
      <g style="fill: #262626" transform="translate(238.323885 382.83587) rotate(-30) scale(0.11 -0.11)">
       <use xlink:href="#MicrosoftYaHei-18"/>
       <use xlink:href="#MicrosoftYaHei-16" transform="translate(58.640625 0)"/>
       <use xlink:href="#MicrosoftYaHei-18" transform="translate(117.28125 0)"/>
       <use xlink:href="#MicrosoftYaHei-1b" transform="translate(175.921875 0)"/>
       <use xlink:href="#MicrosoftYaHei-13" transform="translate(234.5625 0)"/>
       <use xlink:href="#MicrosoftYaHei-16" transform="translate(277.828125 0)"/>
       <use xlink:href="#MicrosoftYaHei-1b" transform="translate(336.46875 0)"/>
      </g>
     </g>
    </g>
    <g id="xtick_10">
     <g id="line2d_14">
      <path d="M 367.628602 343.869403 
L 367.628602 256.062675 
" clip-path="url(#p983b4877e8)" style="fill: none; stroke: #cccccc; stroke-linecap: round"/>
     </g>
     <g id="text_8">
      <!-- 2025-07 -->
      <g style="fill: #262626" transform="translate(328.59558 382.83587) rotate(-30) scale(0.11 -0.11)">
       <defs>
        <path id="MicrosoftYaHei-1d" d="M 3422 4463 
Q 2659 3131 2223 1998 
Q 1788 866 1684 0 
L 1047 0 
Q 1163 853 1594 1947 
Q 2025 3041 2747 4300 
L 347 4300 
L 347 4841 
L 3422 4841 
L 3422 4463 
z
" transform="scale(0.015625)"/>
       </defs>
       <use xlink:href="#MicrosoftYaHei-18"/>
       <use xlink:href="#MicrosoftYaHei-16" transform="translate(58.640625 0)"/>
       <use xlink:href="#MicrosoftYaHei-18" transform="translate(117.28125 0)"/>
       <use xlink:href="#MicrosoftYaHei-1b" transform="translate(175.921875 0)"/>
       <use xlink:href="#MicrosoftYaHei-13" transform="translate(234.5625 0)"/>
       <use xlink:href="#MicrosoftYaHei-16" transform="translate(277.828125 0)"/>
       <use xlink:href="#MicrosoftYaHei-1d" transform="translate(336.46875 0)"/>
      </g>
     </g>
    </g>
    <g id="xtick_11">
     <g id="line2d_15">
      <path d="M 459.380161 343.869403 
L 459.380161 256.062675 
" clip-path="url(#p983b4877e8)" style="fill: none; stroke: #cccccc; stroke-linecap: round"/>
     </g>
     <g id="text_9">
      <!-- 2025-09 -->
      <g style="fill: #262626" transform="translate(420.347139 382.83587) rotate(-30) scale(0.11 -0.11)">
       <defs>
        <path id="MicrosoftYaHei-1f" d="M 578 656 
Q 978 425 1441 425 
Q 2091 425 2448 937 
Q 2806 1450 2806 2394 
Q 2800 2388 2794 2394 
Q 2475 1788 1722 1788 
Q 1113 1788 713 2206 
Q 313 2625 313 3294 
Q 313 4006 750 4464 
Q 1188 4922 1884 4922 
Q 2606 4922 3012 4355 
Q 3419 3788 3419 2703 
Q 3419 1363 2894 641 
Q 2369 -81 1441 -81 
Q 931 -81 578 84 
L 578 656 
z
M 931 3372 
Q 931 2884 1181 2598 
Q 1431 2313 1872 2313 
Q 2253 2313 2512 2573 
Q 2772 2834 2772 3206 
Q 2772 3728 2514 4070 
Q 2256 4413 1834 4413 
Q 1444 4413 1187 4116 
Q 931 3819 931 3372 
z
" transform="scale(0.015625)"/>
       </defs>
       <use xlink:href="#MicrosoftYaHei-18"/>
       <use xlink:href="#MicrosoftYaHei-16" transform="translate(58.640625 0)"/>
       <use xlink:href="#MicrosoftYaHei-18" transform="translate(117.28125 0)"/>
       <use xlink:href="#MicrosoftYaHei-1b" transform="translate(175.921875 0)"/>
       <use xlink:href="#MicrosoftYaHei-13" transform="translate(234.5625 0)"/>
       <use xlink:href="#MicrosoftYaHei-16" transform="translate(277.828125 0)"/>
       <use xlink:href="#MicrosoftYaHei-1f" transform="translate(336.46875 0)"/>
      </g>
     </g>
    </g>
    <g id="xtick_12">
     <g id="line2d_16">
      <path d="M 549.651856 343.869403 
L 549.651856 256.062675 
" clip-path="url(#p983b4877e8)" style="fill: none; stroke: #cccccc; stroke-linecap: round"/>
     </g>
     <g id="text_10">
      <!-- 2025-11 -->
      <g style="fill: #262626" transform="translate(510.618834 382.83587) rotate(-30) scale(0.11 -0.11)">
       <use xlink:href="#MicrosoftYaHei-18"/>
       <use xlink:href="#MicrosoftYaHei-16" transform="translate(58.640625 0)"/>
       <use xlink:href="#MicrosoftYaHei-18" transform="translate(117.28125 0)"/>
       <use xlink:href="#MicrosoftYaHei-1b" transform="translate(175.921875 0)"/>
       <use xlink:href="#MicrosoftYaHei-13" transform="translate(234.5625 0)"/>
       <use xlink:href="#MicrosoftYaHei-17" transform="translate(277.828125 0)"/>
       <use xlink:href="#MicrosoftYaHei-17" transform="translate(336.46875 0)"/>
      </g>
     </g>
    </g>
    <g id="text_11">
     <!-- 月份；低于80%不展示月均值 -->
     <g style="fill: #262626" transform="translate(268.535508 399.25125) scale(0.12 -0.12)">
      <defs>
       <path id="MicrosoftYaHei-461" d="M 2269 2653 
L 5394 2653 
Q 5388 2566 5300 366 
Q 5275 -709 4319 -722 
Q 3806 -722 3425 -703 
Q 3394 -416 3331 -184 
Q 3763 -241 4200 -253 
Q 4806 -297 4813 422 
Q 4863 1259 4888 2216 
L 3481 2216 
Q 3463 1222 3181 572 
Q 2844 -172 2019 -822 
Q 1856 -622 1656 -416 
Q 2450 203 2713 772 
Q 2969 1275 2997 2216 
L 2269 2216 
L 2269 2653 
z
M 75 2353 
Q 969 3534 1525 5284 
L 2013 5116 
Q 1709 4284 1350 3559 
L 1350 -809 
L 875 -809 
L 875 2691 
Q 588 2216 275 1797 
Q 181 2066 75 2353 
z
M 4006 5116 
L 4419 5291 
Q 5038 3703 6325 2972 
Q 6088 2697 5969 2516 
Q 4575 3472 4006 5116 
z
M 1588 2741 
Q 2563 3597 3163 5034 
L 3606 4866 
Q 3025 3409 1963 2397 
Q 1738 2628 1588 2741 
z
" transform="scale(0.015625)"/>
       <path id="MicrosoftYaHei-37a" d="M 1606 3531 
Q 1772 3531 1890 3415 
Q 2009 3300 2009 3138 
Q 2009 2975 1893 2858 
Q 1778 2741 1606 2741 
Q 1434 2741 1318 2858 
Q 1203 2975 1203 3138 
Q 1203 3300 1322 3415 
Q 1441 3531 1606 3531 
z
M 1931 775 
L 1403 -891 
L 966 -891 
L 1350 775 
L 1931 775 
z
" transform="scale(0.015625)"/>
       <path id="MicrosoftYaHei-47a" d="M 2275 4809 
Q 4069 4809 5994 5072 
L 6169 4603 
Q 5306 4522 4497 4469 
Q 4513 3594 4556 2872 
L 6250 2872 
L 6250 2422 
L 4591 2422 
Q 4775 250 5581 -172 
Q 5756 -247 5806 -41 
Q 5863 278 5913 897 
Q 6156 784 6363 728 
Q 6300 141 6225 -241 
Q 6119 -728 5738 -728 
Q 5275 -728 4856 -178 
Q 4259 644 4122 2422 
L 2750 2422 
L 2750 209 
Q 3425 597 3913 878 
Q 3950 591 4006 397 
Q 3206 -59 2744 -353 
Q 2563 -472 2388 -634 
L 2063 -222 
Q 2275 -41 2275 316 
L 2275 4809 
z
M 38 2397 
Q 1000 3697 1531 5334 
L 1988 5172 
Q 1678 4309 1306 3578 
L 1306 -828 
L 856 -828 
L 856 2778 
Q 550 2288 213 1872 
Q 138 2122 38 2397 
z
M 4016 4441 
Q 3366 4403 2750 4384 
L 2750 2872 
L 4094 2872 
Q 4059 3481 4016 4441 
z
M 3531 -116 
L 3856 141 
Q 4206 -191 4544 -566 
L 4181 -859 
Q 3888 -491 3531 -116 
z
" transform="scale(0.015625)"/>
       <path id="MicrosoftYaHei-439" d="M 125 2759 
L 3031 2759 
L 3031 4372 
L 625 4372 
L 625 4866 
L 5800 4866 
L 5800 4372 
L 3556 4372 
L 3556 2759 
L 6275 2759 
L 6275 2266 
L 3556 2266 
L 3556 122 
Q 3556 -303 3400 -491 
Q 3225 -709 2744 -722 
Q 2463 -722 1688 -716 
Q 1656 -428 1588 -147 
Q 2294 -197 2569 -197 
Q 2850 -197 2944 -91 
Q 3031 -3 3031 303 
L 3031 2266 
L 125 2266 
L 125 2759 
z
" transform="scale(0.015625)"/>
       <path id="MicrosoftYaHei-1e" d="M 306 1350 
Q 306 1769 556 2122 
Q 806 2475 1200 2625 
Q 884 2803 700 3081 
Q 516 3359 516 3684 
Q 516 4028 692 4312 
Q 869 4597 1183 4759 
Q 1497 4922 1875 4922 
Q 2256 4922 2572 4761 
Q 2888 4600 3063 4315 
Q 3238 4031 3238 3684 
Q 3238 3366 3058 3086 
Q 2878 2806 2559 2625 
Q 2953 2472 3200 2119 
Q 3447 1766 3447 1350 
Q 3447 938 3250 611 
Q 3053 284 2690 103 
Q 2328 -78 1875 -78 
Q 1425 -78 1065 103 
Q 706 284 506 612 
Q 306 941 306 1350 
z
M 906 1378 
Q 906 947 1172 687 
Q 1438 428 1878 428 
Q 2309 428 2582 692 
Q 2856 956 2856 1378 
Q 2856 1778 2579 2051 
Q 2303 2325 1878 2325 
Q 1456 2325 1181 2058 
Q 906 1791 906 1378 
z
M 1081 3634 
Q 1081 3309 1312 3076 
Q 1544 2844 1878 2844 
Q 2206 2844 2445 3078 
Q 2684 3313 2684 3634 
Q 2684 3963 2454 4191 
Q 2225 4419 1878 4419 
Q 1534 4419 1307 4195 
Q 1081 3972 1081 3634 
z
" transform="scale(0.015625)"/>
       <path id="MicrosoftYaHei-b" d="M 272 3619 
Q 272 4213 589 4563 
Q 906 4913 1444 4913 
Q 1959 4913 2248 4591 
Q 2538 4269 2538 3694 
Q 2538 3122 2219 2765 
Q 1900 2409 1372 2409 
Q 872 2409 572 2740 
Q 272 3072 272 3619 
z
M 753 3650 
Q 753 3247 928 3028 
Q 1103 2809 1406 2809 
Q 1719 2809 1889 3036 
Q 2059 3263 2059 3675 
Q 2059 4078 1892 4298 
Q 1725 4519 1422 4519 
Q 1113 4519 933 4289 
Q 753 4059 753 3650 
z
M 4647 4841 
L 1538 -31 
L 1016 -31 
L 4125 4841 
L 4647 4841 
z
M 3172 1134 
Q 3172 1728 3489 2083 
Q 3806 2438 4341 2438 
Q 4853 2438 5143 2114 
Q 5434 1791 5434 1203 
Q 5434 634 5112 279 
Q 4791 -75 4272 -75 
Q 3769 -75 3470 261 
Q 3172 597 3172 1134 
z
M 3650 1163 
Q 3650 769 3825 548 
Q 4000 328 4303 328 
Q 4616 328 4786 556 
Q 4956 784 4956 1194 
Q 4956 1600 4786 1815 
Q 4616 2031 4319 2031 
Q 4000 2031 3825 1801 
Q 3650 1572 3650 1163 
z
" transform="scale(0.015625)"/>
       <path id="MicrosoftYaHei-409" d="M 225 4772 
L 6181 4772 
L 6181 4284 
L 3881 4284 
Q 3581 3766 3081 3053 
L 3444 3053 
L 3444 -866 
L 2906 -866 
L 2906 2859 
Q 1838 1541 388 609 
Q 231 834 38 1059 
Q 2006 2291 3213 4284 
L 225 4284 
L 225 4772 
z
M 4069 2859 
Q 5238 2147 6325 1409 
L 5969 916 
Q 4681 1872 3763 2434 
L 4069 2859 
z
" transform="scale(0.015625)"/>
       <path id="MicrosoftYaHei-64a" d="M 1463 2897 
L 2488 2897 
L 2488 3441 
L 2950 3441 
L 2950 2897 
L 4244 2897 
L 4244 3441 
L 4706 3441 
L 4706 2897 
L 5875 2897 
L 5875 2484 
L 4706 2484 
L 4706 1797 
L 6169 1797 
L 6169 1384 
L 3534 1384 
Q 3819 922 4228 588 
Q 4716 822 5494 1247 
L 5756 791 
Q 5097 516 4622 316 
Q 5322 -94 6300 -216 
Q 6106 -466 5950 -691 
Q 3900 -266 3047 1384 
L 2381 1384 
L 2381 -184 
Q 2463 -159 3625 209 
Q 3613 -28 3625 -291 
Q 3056 -453 2494 -653 
Q 2350 -709 2044 -859 
L 1769 -478 
Q 1919 -378 1919 -47 
L 1919 1384 
L 1178 1384 
Q 1125 103 456 -847 
Q 300 -634 100 -403 
Q 750 441 750 2341 
L 750 5028 
L 5850 5028 
L 5850 3384 
L 5375 3384 
L 5375 3597 
L 1225 3597 
L 1225 2766 
Q 1225 2234 1203 1797 
L 2488 1797 
L 2488 2484 
L 1463 2484 
L 1463 2897 
z
M 5375 4616 
L 1225 4616 
L 1225 4009 
L 5375 4009 
L 5375 4616 
z
M 2950 1797 
L 4244 1797 
L 4244 2484 
L 2950 2484 
L 2950 1797 
z
" transform="scale(0.015625)"/>
       <path id="MicrosoftYaHei-950" d="M 100 3072 
L 6300 3072 
L 6300 2603 
L 3619 2603 
L 3619 78 
Q 3619 -703 2800 -709 
Q 2366 -709 1825 -703 
Q 1788 -447 1731 -128 
Q 2225 -178 2663 -178 
Q 3088 -178 3088 241 
L 3088 2603 
L 100 2603 
L 100 3072 
z
M 675 4916 
L 5744 4916 
L 5744 4447 
L 675 4447 
L 675 4916 
z
M 4413 1847 
L 4831 2128 
Q 5600 1184 6319 159 
L 5863 -141 
Q 5088 991 4413 1847 
z
M 1481 2141 
L 1938 1884 
Q 1281 747 538 -278 
Q 344 -134 125 16 
Q 825 922 1481 2141 
z
" transform="scale(0.015625)"/>
       <path id="MicrosoftYaHei-49b" d="M 1619 -216 
L 2250 -216 
L 2250 3653 
L 3725 3653 
L 3725 4222 
L 1913 4222 
L 1913 4647 
L 3725 4647 
L 3725 5309 
L 4200 5309 
L 4200 4647 
L 6169 4647 
L 6169 4222 
L 4200 4222 
L 4200 3653 
L 5713 3653 
L 5713 -216 
L 6306 -216 
L 6306 -641 
L 1619 -641 
L 1619 -216 
z
M 69 2247 
Q 906 3497 1369 5278 
L 1831 5141 
Q 1581 4334 1288 3628 
L 1288 -816 
L 831 -816 
L 831 2666 
Q 563 2166 263 1734 
Q 175 1997 69 2247 
z
M 2713 -216 
L 5250 -216 
L 5250 353 
L 2713 353 
L 2713 -216 
z
M 5250 3241 
L 2713 3241 
L 2713 2678 
L 5250 2678 
L 5250 3241 
z
M 2713 1716 
L 5250 1716 
L 5250 2278 
L 2713 2278 
L 2713 1716 
z
M 2713 753 
L 5250 753 
L 5250 1316 
L 2713 1316 
L 2713 753 
z
" transform="scale(0.015625)"/>
      </defs>
      <use xlink:href="#MicrosoftYaHei-7c3"/>
      <use xlink:href="#MicrosoftYaHei-461" transform="translate(100 0)"/>
      <use xlink:href="#MicrosoftYaHei-37a" transform="translate(200 0)"/>
      <use xlink:href="#MicrosoftYaHei-47a" transform="translate(300 0)"/>
      <use xlink:href="#MicrosoftYaHei-439" transform="translate(400 0)"/>
      <use xlink:href="#MicrosoftYaHei-1e" transform="translate(500 0)"/>
      <use xlink:href="#MicrosoftYaHei-16" transform="translate(558.640625 0)"/>
      <use xlink:href="#MicrosoftYaHei-b" transform="translate(617.28125 0)"/>
      <use xlink:href="#MicrosoftYaHei-409" transform="translate(706.25 0)"/>
      <use xlink:href="#MicrosoftYaHei-64a" transform="translate(806.25 0)"/>
      <use xlink:href="#MicrosoftYaHei-950" transform="translate(906.25 0)"/>
      <use xlink:href="#MicrosoftYaHei-7c3" transform="translate(1006.25 0)"/>
      <use xlink:href="#MicrosoftYaHei-5ae" transform="translate(1106.25 0)"/>
      <use xlink:href="#MicrosoftYaHei-49b" transform="translate(1206.25 0)"/>
     </g>
    </g>
   </g>
   <g id="matplotlib.axis_4">
    <g id="ytick_4">
     <g id="line2d_17">
      <path d="M 58.781016 343.869403 
L 635.04 343.869403 
" clip-path="url(#p983b4877e8)" style="fill: none; stroke: #cccccc; stroke-linecap: round"/>
     </g>
     <g id="text_12">
      <!-- 0 -->
      <g style="fill: #262626" transform="translate(42.830547 348.335468) scale(0.11 -0.11)">
       <use xlink:href="#MicrosoftYaHei-16"/>
      </g>
     </g>
    </g>
    <g id="ytick_5">
     <g id="line2d_18">
      <path d="M 58.781016 303.957254 
L 635.04 303.957254 
" clip-path="url(#p983b4877e8)" style="fill: none; stroke: #cccccc; stroke-linecap: round"/>
     </g>
     <g id="text_13">
      <!-- 50 -->
      <g style="fill: #262626" transform="translate(36.380078 308.423319) scale(0.11 -0.11)">
       <use xlink:href="#MicrosoftYaHei-1b"/>
       <use xlink:href="#MicrosoftYaHei-16" transform="translate(58.640625 0)"/>
      </g>
     </g>
    </g>
    <g id="ytick_6">
     <g id="line2d_19">
      <path d="M 58.781016 264.045105 
L 635.04 264.045105 
" clip-path="url(#p983b4877e8)" style="fill: none; stroke: #cccccc; stroke-linecap: round"/>
     </g>
     <g id="text_14">
      <!-- 100 -->
      <g style="fill: #262626" transform="translate(29.929609 268.51117) scale(0.11 -0.11)">
       <use xlink:href="#MicrosoftYaHei-17"/>
       <use xlink:href="#MicrosoftYaHei-16" transform="translate(58.640625 0)"/>
       <use xlink:href="#MicrosoftYaHei-16" transform="translate(117.28125 0)"/>
      </g>
     </g>
    </g>
    <g id="text_15">
     <!-- 覆盖率（%） -->
     <g style="fill: #262626" transform="translate(22.888594 335.304164) rotate(-90) scale(0.12 -0.12)">
      <defs>
       <path id="MicrosoftYaHei-a7e" d="M 1706 191 
Q 2394 572 2869 1028 
L 2363 1028 
L 2363 2247 
Q 2231 2097 2094 1953 
Q 1975 2122 1825 2259 
Q 2319 2703 2619 3272 
L 3050 3272 
Q 2988 3153 2925 3041 
L 5950 3041 
L 5950 2753 
L 2744 2753 
Q 2644 2603 2525 2453 
L 5638 2453 
L 5638 922 
L 5238 922 
L 5238 1028 
L 3344 1028 
Q 3194 866 3038 722 
L 5588 722 
L 5588 447 
Q 5094 72 4538 -184 
Q 5288 -341 6306 -372 
Q 6269 -447 6106 -766 
Q 4856 -684 3981 -403 
Q 3094 -709 1981 -866 
Q 1906 -684 1750 -484 
Q 2706 -384 3450 -184 
Q 3000 47 2650 378 
Q 2325 122 1981 -78 
Q 1963 -59 1706 191 
z
M 631 4353 
L 2225 4353 
L 2225 4722 
L 300 4722 
L 300 5059 
L 6113 5059 
L 6113 4722 
L 4181 4722 
L 4181 4353 
L 5775 4353 
L 5775 3234 
L 5363 3234 
L 5363 3347 
L 1044 3347 
L 1044 3234 
L 631 3234 
L 631 4353 
z
M 1563 2084 
L 1925 1884 
Q 1656 1497 1375 1166 
L 1375 -834 
L 975 -834 
L 975 734 
Q 713 478 444 266 
Q 281 453 150 566 
Q 944 1166 1563 2084 
z
M 2763 1309 
L 5238 1309 
L 5238 1609 
L 2763 1609 
L 2763 1309 
z
M 5238 2172 
L 2763 2172 
L 2763 1872 
L 5238 1872 
L 5238 2172 
z
M 1388 3191 
L 1744 2991 
Q 1156 2209 475 1641 
Q 344 1778 156 1941 
Q 844 2428 1388 3191 
z
M 5363 4059 
L 4181 4059 
L 4181 3641 
L 5363 3641 
L 5363 4059 
z
M 2613 3641 
L 3794 3641 
L 3794 4059 
L 2613 4059 
L 2613 3641 
z
M 1044 3641 
L 2225 3641 
L 2225 4059 
L 1044 4059 
L 1044 3641 
z
M 4981 447 
L 3088 447 
Q 3481 147 3969 -22 
Q 4506 159 4981 447 
z
M 2613 4353 
L 3794 4353 
L 3794 4722 
L 2613 4722 
L 2613 4353 
z
" transform="scale(0.015625)"/>
       <path id="MicrosoftYaHei-924" d="M 138 -172 
L 800 -172 
L 800 1578 
L 5569 1578 
L 5569 -172 
L 6269 -172 
L 6269 -609 
L 138 -609 
L 138 -172 
z
M 250 2534 
L 2956 2534 
L 2956 3103 
L 600 3103 
L 600 3509 
L 2956 3509 
L 2956 4072 
L 325 4072 
L 325 4491 
L 2081 4491 
Q 1866 4794 1631 5091 
L 2013 5359 
Q 2319 5016 2556 4722 
L 2228 4491 
L 3725 4491 
Q 4053 4931 4306 5353 
L 4794 5053 
Q 4556 4775 4306 4491 
L 6075 4491 
L 6075 4072 
L 3425 4072 
L 3425 3509 
L 5800 3509 
L 5800 3103 
L 3425 3103 
L 3425 2534 
L 6150 2534 
L 6150 2116 
L 250 2116 
L 250 2534 
z
M 5100 1172 
L 4119 1172 
L 4119 -172 
L 5100 -172 
L 5100 1172 
z
M 1269 -172 
L 2238 -172 
L 2238 1172 
L 1269 1172 
L 1269 -172 
z
M 2694 -172 
L 3663 -172 
L 3663 1172 
L 2694 1172 
L 2694 -172 
z
" transform="scale(0.015625)"/>
       <path id="MicrosoftYaHei-8e4" d="M 2525 2009 
Q 2622 2016 3928 2081 
Q 3772 2300 3625 2491 
L 3963 2703 
Q 4413 2203 4794 1653 
L 4394 1403 
Q 4284 1569 4178 1725 
Q 2991 1659 2213 1597 
Q 2075 1584 1881 1541 
L 1725 1966 
Q 1913 2028 2006 2084 
Q 2534 2441 3050 2913 
Q 2597 2894 2275 2866 
Q 2144 2847 1988 2809 
L 1800 3191 
Q 1956 3247 2088 3366 
Q 2509 3722 2875 4228 
L 231 4228 
L 231 4666 
L 3031 4666 
Q 2878 4944 2744 5153 
L 3194 5372 
Q 3438 5000 3616 4666 
L 6175 4666 
L 6175 4228 
L 3053 4228 
L 3350 4072 
Q 2844 3553 2494 3247 
Q 2850 3256 3425 3269 
Q 3675 3519 3925 3797 
L 4356 3547 
Q 3363 2603 2525 2009 
z
M 144 991 
L 2994 991 
L 2994 1541 
L 3488 1541 
L 3488 991 
L 6275 991 
L 6275 553 
L 3488 553 
L 3488 -853 
L 2994 -853 
L 2994 553 
L 144 553 
L 144 991 
z
M 1719 2672 
L 1944 2303 
Q 1200 1866 425 1409 
L 163 1828 
Q 813 2134 1719 2672 
z
M 4856 2678 
Q 5750 2172 6250 1816 
L 5975 1409 
Q 5331 1909 4600 2341 
L 4856 2678 
z
M 5994 3591 
Q 5519 3178 4963 2809 
L 4644 3141 
Q 5244 3534 5638 3928 
L 5994 3591 
z
M 363 3634 
L 681 3941 
Q 1200 3528 1588 3159 
L 1238 2816 
Q 875 3197 363 3634 
z
" transform="scale(0.015625)"/>
      </defs>
      <use xlink:href="#MicrosoftYaHei-a7e"/>
      <use xlink:href="#MicrosoftYaHei-924" transform="translate(100 0)"/>
      <use xlink:href="#MicrosoftYaHei-8e4" transform="translate(200 0)"/>
      <use xlink:href="#MicrosoftYaHei-367" transform="translate(300 0)"/>
      <use xlink:href="#MicrosoftYaHei-b" transform="translate(400 0)"/>
      <use xlink:href="#MicrosoftYaHei-368" transform="translate(488.96875 0)"/>
     </g>
    </g>
   </g>
   <g id="patch_6">
    <path d="M 84.974606 343.869403 
L 114.571883 343.869403 
L 114.571883 264.045105 
L 84.974606 264.045105 
z
" clip-path="url(#p983b4877e8)" style="fill: #188568; stroke: #ffffff; stroke-linejoin: miter"/>
   </g>
   <g id="patch_7">
    <path d="M 130.850385 343.869403 
L 160.447662 343.869403 
L 160.447662 264.045105 
L 130.850385 264.045105 
z
" clip-path="url(#p983b4877e8)" style="fill: #188568; stroke: #ffffff; stroke-linejoin: miter"/>
   </g>
   <g id="patch_8">
    <path d="M 172.286573 343.869403 
L 201.88385 343.869403 
L 201.88385 264.045105 
L 172.286573 264.045105 
z
" clip-path="url(#p983b4877e8)" style="fill: #188568; stroke: #ffffff; stroke-linejoin: miter"/>
   </g>
   <g id="patch_9">
    <path d="M 218.162353 343.869403 
L 247.75963 343.869403 
L 247.75963 264.045105 
L 218.162353 264.045105 
z
" clip-path="url(#p983b4877e8)" style="fill: #188568; stroke: #ffffff; stroke-linejoin: miter"/>
   </g>
   <g id="patch_10">
    <path d="M 262.558268 343.869403 
L 292.155545 343.869403 
L 292.155545 264.045105 
L 262.558268 264.045105 
z
" clip-path="url(#p983b4877e8)" style="fill: #188568; stroke: #ffffff; stroke-linejoin: miter"/>
   </g>
   <g id="patch_11">
    <path d="M 308.434048 343.869403 
L 338.031325 343.869403 
L 338.031325 343.869403 
L 308.434048 343.869403 
z
" clip-path="url(#p983b4877e8)" style="fill: #cb6677; stroke: #ffffff; stroke-linejoin: miter"/>
   </g>
   <g id="patch_12">
    <path d="M 352.829963 343.869403 
L 382.42724 343.869403 
L 382.42724 264.045105 
L 352.829963 264.045105 
z
" clip-path="url(#p983b4877e8)" style="fill: #188568; stroke: #ffffff; stroke-linejoin: miter"/>
   </g>
   <g id="patch_13">
    <path d="M 398.705743 343.869403 
L 428.30302 343.869403 
L 428.30302 264.045105 
L 398.705743 264.045105 
z
" clip-path="url(#p983b4877e8)" style="fill: #188568; stroke: #ffffff; stroke-linejoin: miter"/>
   </g>
   <g id="patch_14">
    <path d="M 444.581522 343.869403 
L 474.178799 343.869403 
L 474.178799 306.618064 
L 444.581522 306.618064 
z
" clip-path="url(#p983b4877e8)" style="fill: #cb6677; stroke: #ffffff; stroke-linejoin: miter"/>
   </g>
   <g id="patch_15">
    <path d="M 488.977438 343.869403 
L 518.574715 343.869403 
L 518.574715 264.045105 
L 488.977438 264.045105 
z
" clip-path="url(#p983b4877e8)" style="fill: #188568; stroke: #ffffff; stroke-linejoin: miter"/>
   </g>
   <g id="patch_16">
    <path d="M 534.853217 343.869403 
L 564.450494 343.869403 
L 564.450494 264.045105 
L 534.853217 264.045105 
z
" clip-path="url(#p983b4877e8)" style="fill: #188568; stroke: #ffffff; stroke-linejoin: miter"/>
   </g>
   <g id="patch_17">
    <path d="M 579.249133 343.869403 
L 608.84641 343.869403 
L 608.84641 264.045105 
L 579.249133 264.045105 
z
" clip-path="url(#p983b4877e8)" style="fill: #188568; stroke: #ffffff; stroke-linejoin: miter"/>
   </g>
   <g id="line2d_20">
    <path d="M 58.781016 280.009965 
L 635.04 280.009965 
" clip-path="url(#p983b4877e8)" style="fill: none; stroke-dasharray: 5.55,2.4; stroke-dashoffset: 0; stroke: #777777; stroke-width: 1.5"/>
   </g>
   <g id="patch_18">
    <path d="M 58.781016 343.869403 
L 58.781016 256.062675 
" style="fill: none; stroke: #cccccc; stroke-width: 1.25; stroke-linejoin: miter; stroke-linecap: square"/>
   </g>
   <g id="patch_19">
    <path d="M 58.781016 343.869403 
L 635.04 343.869403 
" style="fill: none; stroke: #cccccc; stroke-width: 1.25; stroke-linejoin: miter; stroke-linecap: square"/>
   </g>
  </g>
  <g id="text_16">
   <!-- 49 · 日数据汇总为月均值，缺测不能当零 -->
   <g style="fill: #1c493a" transform="translate(51.84 20.7135) scale(0.144 -0.144)">
    <defs>
     <path id="MicrosoftYaHei-Bold-1a" d="M 3184 4841 
L 3184 1766 
L 3869 1766 
L 3869 1031 
L 3184 1031 
L 3184 0 
L 2266 0 
L 2266 1031 
L 103 1031 
L 103 1772 
Q 775 2522 1362 3359 
Q 1950 4197 2250 4841 
L 3184 4841 
z
M 997 1766 
L 2266 1766 
L 2266 3541 
Q 2116 3259 1836 2859 
Q 1556 2459 997 1766 
z
" transform="scale(0.015625)"/>
     <path id="MicrosoftYaHei-Bold-1f" d="M 544 941 
Q 931 691 1456 691 
Q 2628 691 2653 2216 
L 2634 2222 
Q 2316 1731 1650 1731 
Q 1047 1731 658 2154 
Q 269 2578 269 3222 
Q 269 3978 737 4450 
Q 1206 4922 1959 4922 
Q 2744 4922 3191 4325 
Q 3638 3728 3638 2659 
Q 3638 1391 3098 653 
Q 2559 -84 1547 -84 
Q 975 -84 544 100 
L 544 941 
z
M 1259 3313 
Q 1259 2928 1445 2709 
Q 1631 2491 1953 2491 
Q 2241 2491 2427 2700 
Q 2613 2909 2613 3219 
Q 2613 3591 2427 3869 
Q 2241 4147 1928 4147 
Q 1625 4147 1442 3906 
Q 1259 3666 1259 3313 
z
" transform="scale(0.015625)"/>
     <path id="MicrosoftYaHei-Bold-3" transform="scale(0.015625)"/>
     <path id="MicrosoftYaHei-Bold-215" d="M 1406 2959 
Q 1769 2959 2028 2700 
Q 2288 2441 2288 2078 
Q 2288 1713 2028 1455 
Q 1769 1197 1406 1197 
Q 1041 1197 783 1455 
Q 525 1713 525 2078 
Q 525 2441 783 2700 
Q 1041 2959 1406 2959 
z
" transform="scale(0.015625)"/>
     <path id="MicrosoftYaHei-Bold-77a" d="M 750 -778 
L 750 4972 
L 5688 4972 
L 5688 -778 
L 4725 -778 
L 4725 -341 
L 1713 -341 
L 1713 -778 
L 750 -778 
z
M 4725 4084 
L 1713 4084 
L 1713 2772 
L 4725 2772 
L 4725 4084 
z
M 1713 547 
L 4725 547 
L 4725 1909 
L 1713 1909 
L 1713 547 
z
" transform="scale(0.015625)"/>
     <path id="MicrosoftYaHei-Bold-764" d="M 238 4091 
L 725 4091 
Q 559 4425 281 4803 
L 844 5153 
Q 1038 4922 1369 4428 
L 806 4091 
L 1506 4091 
L 1506 5316 
L 2300 5316 
L 2300 4091 
L 2956 4091 
L 2438 4428 
Q 2750 4809 2963 5172 
L 3550 4822 
Q 3341 4466 3031 4091 
L 3394 4091 
L 3394 3453 
L 2300 3453 
L 2300 3016 
L 2513 3303 
Q 2903 3094 3253 2891 
Q 3766 3841 4138 5347 
L 4994 5266 
Q 4869 4781 4728 4341 
L 6294 4341 
L 6294 3578 
L 6041 3578 
Q 5906 1922 5338 856 
Q 5738 391 6319 53 
Q 6094 -203 5775 -778 
Q 5228 -413 4828 109 
Q 4313 -497 3631 -872 
Q 3378 -513 3072 -197 
L 2850 -566 
Q 2475 -350 2031 -128 
Q 1347 -584 394 -778 
Q 281 -434 63 -9 
Q 716 59 1213 253 
Q 781 444 300 641 
Q 513 950 681 1259 
L 169 1259 
L 169 1897 
L 991 1897 
Q 1094 2144 1169 2391 
L 1506 2359 
L 1506 2959 
Q 1044 2472 344 2053 
Q 213 2472 50 2803 
Q 672 3044 1172 3453 
L 238 3453 
L 238 4091 
z
M 4394 3400 
Q 4519 2359 4831 1659 
Q 5203 2478 5275 3578 
L 4463 3578 
Q 4431 3488 4394 3400 
z
M 2300 2216 
L 1984 2216 
Q 1913 2063 1825 1897 
L 3281 1897 
L 3281 1316 
Q 3038 806 2672 413 
L 3294 166 
L 3169 -38 
Q 3859 322 4347 894 
Q 4041 1522 3878 2300 
Q 3769 2103 3656 1922 
Q 3513 2172 3322 2438 
L 3138 2159 
Q 2750 2422 2300 2691 
L 2300 2216 
z
M 1300 934 
L 1950 691 
Q 2231 934 2413 1259 
L 1484 1259 
L 1300 934 
z
" transform="scale(0.015625)"/>
     <path id="MicrosoftYaHei-Bold-728" d="M 6294 1916 
L 4869 1916 
L 4869 1391 
L 5919 1391 
L 5919 -853 
L 5181 -853 
L 5181 -541 
L 3788 -541 
L 3788 -853 
L 3050 -853 
L 3050 1391 
L 4081 1391 
L 4081 1916 
L 2988 1916 
Q 2875 203 2188 -803 
Q 1925 -459 1625 -166 
Q 2250 928 2250 2803 
L 2250 5084 
L 6031 5084 
L 6031 3128 
L 4869 3128 
L 4869 2572 
L 6294 2572 
L 6294 1916 
z
M 169 4147 
L 763 4147 
L 763 5253 
L 1519 5253 
L 1519 4147 
L 2056 4147 
L 2056 3347 
L 1519 3347 
L 1519 2472 
Q 1788 2528 2088 2603 
Q 2056 2103 2063 1791 
Q 1788 1722 1519 1653 
L 1519 -59 
Q 1519 -753 950 -772 
Q 619 -803 313 -791 
Q 250 -422 131 22 
Q 338 16 550 9 
Q 763 3 763 309 
L 763 1459 
Q 463 1378 163 1303 
L 94 2166 
Q 375 2222 763 2303 
L 763 3347 
L 169 3347 
L 169 4147 
z
M 5263 3784 
L 5263 4428 
L 3013 4428 
L 3013 3784 
L 5263 3784 
z
M 5181 734 
L 3788 734 
L 3788 116 
L 5181 116 
L 5181 734 
z
M 4081 2572 
L 4081 3128 
L 3013 3128 
L 3013 2572 
L 4081 2572 
z
" transform="scale(0.015625)"/>
     <path id="MicrosoftYaHei-Bold-82e" d="M 825 5247 
Q 1294 4897 1919 4366 
L 1344 3753 
Q 794 4272 306 4691 
L 825 5247 
z
M 2100 4947 
L 6163 4947 
L 6163 4166 
L 2975 4166 
L 2975 191 
L 6250 191 
L 6250 -584 
L 2100 -584 
L 2100 4947 
z
M 594 3697 
Q 1350 3141 1825 2741 
L 1244 2097 
Q 669 2609 81 3084 
L 594 3697 
z
M 875 1934 
Q 1313 1759 1713 1653 
Q 1388 291 1050 -716 
Q 588 -566 188 -466 
Q 563 628 875 1934 
z
" transform="scale(0.015625)"/>
     <path id="MicrosoftYaHei-Bold-3500" d="M 900 4341 
L 1947 4341 
Q 1719 4725 1488 5072 
L 2263 5366 
Q 2550 4984 2881 4509 
L 2453 4341 
L 3500 4341 
Q 3844 4806 4181 5328 
L 5113 5141 
L 4478 4341 
L 5525 4341 
L 5525 1816 
L 3341 1816 
Q 3700 1484 4094 1072 
L 3456 516 
Q 3013 1041 2594 1484 
L 2984 1816 
L 900 1816 
L 900 4341 
z
M 4600 3566 
L 1825 3566 
L 1825 2591 
L 4600 2591 
L 4600 3566 
z
M 4338 916 
Q 4838 641 5150 497 
Q 4919 -400 4617 -570 
Q 4316 -741 3906 -741 
L 2488 -741 
Q 1550 -741 1550 166 
L 1550 1491 
L 2375 1491 
L 2375 384 
Q 2375 53 2775 53 
L 3719 53 
Q 3919 53 4055 129 
Q 4191 206 4230 378 
Q 4269 550 4338 916 
z
M 669 1441 
L 1444 1178 
Q 1131 278 844 -409 
L 88 -78 
Q 419 634 669 1441 
z
M 5725 1428 
Q 6056 653 6331 -72 
L 5525 -372 
Q 5256 441 4950 1141 
L 5725 1428 
z
" transform="scale(0.015625)"/>
     <path id="MicrosoftYaHei-Bold-41d" d="M 3225 -759 
Q 3169 -403 2994 178 
Q 3759 125 4203 125 
Q 4553 125 4689 192 
Q 4825 259 4876 386 
Q 4928 513 4981 1233 
Q 5034 1953 5094 3103 
L 3288 3103 
Q 3228 2550 3081 2053 
L 3644 2578 
Q 4081 2197 4694 1634 
L 4031 997 
Q 3472 1634 3069 2013 
Q 2528 206 850 -878 
Q 406 -459 106 -209 
Q 2091 988 2350 3103 
L 238 3103 
L 238 3928 
L 1356 3928 
Q 1028 4350 606 4791 
L 1219 5316 
Q 1706 4866 2100 4459 
L 1509 3928 
L 2413 3928 
L 2500 5322 
L 3463 5322 
L 3350 3928 
L 6013 3928 
L 5866 1500 
Q 5794 325 5745 93 
Q 5697 -138 5531 -344 
Q 5366 -550 5116 -644 
Q 4866 -738 4202 -755 
Q 3538 -772 3225 -759 
z
" transform="scale(0.015625)"/>
     <path id="MicrosoftYaHei-Bold-7a4" d="M 1038 -866 
Q 625 -497 225 -178 
Q 784 388 932 936 
Q 1081 1484 1081 2603 
L 1081 5034 
L 5681 5034 
L 5681 366 
Q 5681 -181 5450 -465 
Q 5219 -750 4808 -775 
Q 4397 -800 3431 -791 
Q 3338 -303 3188 172 
Q 3806 134 4269 134 
Q 4756 134 4756 591 
L 4756 1041 
L 1947 1041 
Q 1872 353 1648 -56 
Q 1425 -466 1038 -866 
z
M 4756 4191 
L 2006 4191 
L 2006 3459 
L 4756 3459 
L 4756 4191 
z
M 1997 1884 
L 4756 1884 
L 4756 2616 
L 2006 2616 
Q 2006 2434 1997 1884 
z
" transform="scale(0.015625)"/>
     <path id="MicrosoftYaHei-Bold-5ad" d="M 250 -397 
L 88 547 
Q 425 628 794 725 
L 794 2847 
L 213 2847 
L 213 3703 
L 794 3703 
L 794 5322 
L 1638 5322 
L 1638 3703 
L 2156 3703 
L 2156 3269 
Q 2794 4313 3075 5366 
L 3925 5266 
Q 3809 4866 3669 4491 
L 6069 4491 
L 6016 1816 
L 5966 303 
Q 5944 -194 5730 -450 
Q 5516 -706 5167 -745 
Q 4819 -784 3775 -797 
Q 3700 -397 3556 153 
Q 4178 103 4625 103 
Q 4819 103 4955 208 
Q 5091 313 5105 575 
Q 5119 838 5141 1619 
L 5181 3703 
L 3341 3703 
Q 3059 3088 2706 2541 
Q 2463 2763 2156 3003 
L 2156 2847 
L 1638 2847 
L 1638 959 
L 2288 1153 
Q 2275 878 2269 253 
Q 963 -134 250 -397 
z
M 3556 3353 
Q 4106 2922 4588 2466 
L 4006 1891 
Q 3500 2403 3019 2822 
L 3556 3353 
z
M 2719 209 
L 2500 1128 
Q 3650 1534 4938 2059 
Q 4956 1566 5000 1153 
Q 3894 728 2719 209 
z
" transform="scale(0.015625)"/>
     <path id="MicrosoftYaHei-Bold-49a" d="M 1638 3 
L 2100 3 
L 2100 3728 
L 3556 3728 
L 3556 4097 
L 1950 4097 
L 1950 4797 
L 3556 4797 
L 3556 5266 
L 4381 5266 
L 4381 4797 
L 6175 4797 
L 6175 4097 
L 4381 4097 
L 4381 3728 
L 5888 3728 
L 5888 3 
L 6325 3 
L 6325 -697 
L 1638 -697 
L 1638 3 
z
M 1125 5347 
L 1950 5128 
Q 1713 4378 1419 3666 
L 1419 -853 
L 625 -853 
L 625 2022 
Q 456 1716 275 1422 
Q 200 1916 69 2591 
Q 675 3803 1125 5347 
z
M 2888 1853 
L 5100 1853 
L 5100 2178 
L 2888 2178 
L 2888 1853 
z
M 2888 928 
L 5100 928 
L 5100 1253 
L 2888 1253 
L 2888 928 
z
M 5100 3103 
L 2888 3103 
L 2888 2778 
L 5100 2778 
L 5100 3103 
z
M 2888 3 
L 5100 3 
L 5100 328 
L 2888 328 
L 2888 3 
z
" transform="scale(0.015625)"/>
     <path id="MicrosoftYaHei-Bold-367" d="M 2075 831 
L 1569 -863 
L 831 -863 
L 1191 831 
L 2075 831 
z
" transform="scale(0.015625)"/>
     <path id="MicrosoftYaHei-Bold-9ad" d="M 3881 5309 
L 4631 5309 
L 4631 4316 
L 5900 4316 
L 5900 2391 
L 6213 2391 
L 6213 1703 
L 4719 1703 
Q 5163 509 6313 -134 
Q 5931 -547 5669 -816 
Q 4681 -53 4325 1028 
Q 3919 -84 3006 -878 
Q 2794 -609 2606 -403 
L 331 -491 
L 331 1822 
L 969 1822 
L 969 259 
L 1331 284 
L 1331 2222 
L 106 2222 
L 106 2934 
L 1331 2934 
L 1331 3909 
L 1100 3909 
Q 944 3447 781 3103 
Q 469 3266 113 3366 
Q 488 4228 706 5334 
L 1463 5209 
Q 1388 4897 1313 4622 
L 3006 4622 
L 3006 3909 
L 2106 3909 
L 2106 2934 
L 3131 2934 
L 3131 2391 
L 3844 2391 
Q 3875 2909 3881 3628 
L 3169 3628 
L 3169 4316 
L 3881 4316 
Q 3869 4816 3881 5309 
z
M 3056 1803 
L 3056 284 
Q 3619 909 3775 1703 
L 3081 1703 
L 3081 2222 
L 2106 2222 
L 2106 309 
L 2475 334 
L 2475 1803 
L 3056 1803 
z
M 4594 2391 
L 5175 2391 
L 5175 3628 
L 4625 3628 
Q 4613 2966 4594 2391 
z
" transform="scale(0.015625)"/>
     <path id="MicrosoftYaHei-Bold-85a" d="M 1706 1084 
L 1706 4475 
L 1144 3866 
Q 738 4272 238 4709 
L 750 5284 
Q 1191 4966 1706 4513 
L 1706 5016 
L 4113 5016 
L 4113 1116 
L 3463 1116 
L 3463 4328 
L 2356 4328 
L 2356 1084 
L 1706 1084 
z
M 5344 5234 
L 6069 5234 
L 6069 59 
Q 6069 -272 5926 -465 
Q 5784 -659 5550 -707 
Q 5316 -756 4600 -747 
Q 4550 -328 4406 128 
Q 4750 91 5063 91 
Q 5344 91 5344 428 
L 5344 5234 
z
M 4406 4772 
L 5044 4772 
L 5044 591 
L 4406 591 
L 4406 4772 
z
M 2619 3903 
L 3194 3903 
L 3194 2297 
Q 3194 1259 2953 609 
L 3369 934 
Q 3900 384 4350 -134 
L 3731 -622 
Q 3338 -56 2900 478 
Q 2613 -209 1900 -841 
Q 1613 -428 1369 -166 
Q 2081 331 2350 920 
Q 2619 1509 2619 2428 
L 2619 3903 
z
M 600 3622 
Q 1088 3266 1588 2834 
L 1025 2159 
Q 656 2516 88 3028 
L 600 3622 
z
M 813 1834 
Q 1256 1647 1594 1541 
L 1000 -822 
Q 556 -659 200 -566 
Q 525 466 813 1834 
z
" transform="scale(0.015625)"/>
     <path id="MicrosoftYaHei-Bold-408" d="M 350 4928 
L 6088 4928 
L 6088 4078 
L 3866 4078 
Q 3659 3556 3375 3072 
L 3675 3072 
L 3675 2341 
L 4300 2928 
Q 5144 2178 6338 1078 
L 5606 359 
Q 4809 1284 3675 2316 
L 3675 -853 
L 2731 -853 
L 2731 2141 
Q 1925 1138 725 303 
Q 525 591 88 1128 
Q 2069 2419 2813 4078 
L 350 4078 
L 350 4928 
z
" transform="scale(0.015625)"/>
     <path id="MicrosoftYaHei-Bold-9d7" d="M 2644 4797 
Q 3100 4172 3569 3447 
Q 3188 3222 2906 3066 
L 2731 3369 
L 319 3197 
L 100 3897 
Q 519 4116 1331 5353 
L 2125 5053 
L 1213 3947 
L 2353 3994 
Q 2200 4238 2044 4472 
L 2644 4797 
z
M 5513 3916 
Q 5981 3697 6288 3597 
Q 6200 3228 6114 2942 
Q 6028 2656 5798 2520 
Q 5569 2384 5200 2384 
L 4556 2384 
Q 3594 2384 3588 3322 
L 3588 5291 
L 4381 5291 
L 4381 4347 
Q 5153 4700 5681 5003 
L 6231 4366 
Q 5553 4056 4381 3616 
L 4381 3422 
Q 4381 3072 4800 3072 
L 5000 3072 
Q 5341 3072 5392 3269 
Q 5444 3466 5513 3916 
z
M 1213 -797 
L 431 -797 
L 431 2978 
L 3106 2978 
L 3106 41 
Q 3106 -325 2972 -525 
Q 2838 -725 2566 -759 
Q 2294 -794 1681 -784 
Q 1594 -422 1481 -41 
Q 1791 -59 1969 -59 
Q 2213 -59 2269 28 
Q 2325 116 2325 228 
L 2325 378 
L 1213 378 
L 1213 -797 
z
M 2325 2303 
L 1213 2303 
L 1213 1947 
L 2325 1947 
L 2325 2303 
z
M 1213 984 
L 2325 984 
L 2325 1341 
L 1213 1341 
L 1213 984 
z
M 5531 953 
Q 5913 797 6313 647 
Q 6194 -78 6081 -287 
Q 5969 -497 5750 -605 
Q 5531 -713 5206 -716 
L 4550 -716 
Q 3588 -716 3588 228 
L 3588 2216 
L 4381 2216 
L 4381 1438 
Q 5072 1781 5675 2147 
L 6225 1491 
Q 5372 1084 4381 672 
L 4381 353 
Q 4381 -28 4738 -28 
L 5000 -28 
Q 5275 -28 5365 90 
Q 5456 209 5531 953 
z
" transform="scale(0.015625)"/>
     <path id="MicrosoftYaHei-Bold-6a1" d="M 344 278 
L 4975 278 
L 4975 891 
L 625 891 
L 625 1666 
L 4975 1666 
L 4975 2278 
L 425 2278 
L 425 3053 
L 2725 3053 
L 2725 5353 
L 3650 5353 
L 3650 3053 
L 5900 3053 
L 5900 -866 
L 4975 -866 
L 4975 -497 
L 344 -497 
L 344 278 
z
M 1188 5097 
L 2413 3816 
L 1731 3216 
Q 1138 3953 588 4528 
L 1188 5097 
z
M 5200 5091 
L 5900 4503 
L 4613 3203 
L 3969 3778 
Q 4669 4453 5200 5091 
z
" transform="scale(0.015625)"/>
     <path id="MicrosoftYaHei-Bold-b78" d="M 3869 2803 
L 5481 2803 
L 5481 2403 
L 4088 2403 
Q 4988 1869 6325 1684 
Q 6131 1397 5956 984 
Q 5688 1044 5431 1122 
L 5431 641 
L 3997 -106 
L 4925 -384 
L 4294 -903 
Q 2663 -397 1038 66 
L 1513 566 
L 3181 122 
L 4325 616 
L 1050 616 
L 1050 1147 
Q 756 1050 456 972 
Q 288 1341 94 1628 
Q 1538 1947 2325 2403 
L 913 2403 
L 913 2803 
L 2538 2803 
L 2538 2534 
Q 2694 2644 2819 2759 
L 2819 3684 
L 1038 3684 
L 1038 2947 
L 313 2947 
L 313 4253 
L 2819 4253 
L 2819 4522 
L 588 4522 
L 588 5103 
L 5806 5103 
L 5806 4522 
L 3575 4522 
L 3575 4253 
L 6081 4253 
L 6081 2947 
L 5356 2947 
L 5356 3684 
L 3575 3684 
L 3575 2766 
Q 3713 2647 3869 2544 
L 3869 2803 
z
M 2606 1672 
L 3144 2009 
Q 3419 1722 3688 1397 
L 3456 1241 
L 5059 1241 
Q 4038 1597 3200 2203 
Q 2300 1606 1313 1241 
L 2950 1241 
Q 2775 1478 2606 1672 
z
M 1238 3447 
L 2538 3447 
L 2538 3041 
L 1238 3041 
L 1238 3447 
z
M 3869 3447 
L 5163 3447 
L 5163 3041 
L 3869 3041 
L 3869 3447 
z
" transform="scale(0.015625)"/>
    </defs>
    <use xlink:href="#MicrosoftYaHei-Bold-1a"/>
    <use xlink:href="#MicrosoftYaHei-Bold-1f" transform="translate(61.671875 0)"/>
    <use xlink:href="#MicrosoftYaHei-Bold-3" transform="translate(123.34375 0)"/>
    <use xlink:href="#MicrosoftYaHei-Bold-215" transform="translate(153.125 0)"/>
    <use xlink:href="#MicrosoftYaHei-Bold-3" transform="translate(197.078125 0)"/>
    <use xlink:href="#MicrosoftYaHei-Bold-77a" transform="translate(226.859375 0)"/>
    <use xlink:href="#MicrosoftYaHei-Bold-764" transform="translate(326.859375 0)"/>
    <use xlink:href="#MicrosoftYaHei-Bold-728" transform="translate(426.859375 0)"/>
    <use xlink:href="#MicrosoftYaHei-Bold-82e" transform="translate(526.859375 0)"/>
    <use xlink:href="#MicrosoftYaHei-Bold-3500" transform="translate(626.859375 0)"/>
    <use xlink:href="#MicrosoftYaHei-Bold-41d" transform="translate(726.859375 0)"/>
    <use xlink:href="#MicrosoftYaHei-Bold-7a4" transform="translate(826.859375 0)"/>
    <use xlink:href="#MicrosoftYaHei-Bold-5ad" transform="translate(926.859375 0)"/>
    <use xlink:href="#MicrosoftYaHei-Bold-49a" transform="translate(1026.859375 0)"/>
    <use xlink:href="#MicrosoftYaHei-Bold-367" transform="translate(1126.859375 0)"/>
    <use xlink:href="#MicrosoftYaHei-Bold-9ad" transform="translate(1226.859375 0)"/>
    <use xlink:href="#MicrosoftYaHei-Bold-85a" transform="translate(1326.859375 0)"/>
    <use xlink:href="#MicrosoftYaHei-Bold-408" transform="translate(1426.859375 0)"/>
    <use xlink:href="#MicrosoftYaHei-Bold-9d7" transform="translate(1526.859375 0)"/>
    <use xlink:href="#MicrosoftYaHei-Bold-6a1" transform="translate(1626.859375 0)"/>
    <use xlink:href="#MicrosoftYaHei-Bold-b78" transform="translate(1726.859375 0)"/>
   </g>
  </g>
  <g id="text_17">
   <!-- 模拟数据 · 可以叫我才哥 · v1.0.2 -->
   <g style="fill: #64746c" transform="translate(51.84 426.816) scale(0.09 -0.09)">
    <defs>
     <path id="MicrosoftYaHei-825" d="M 2050 984 
L 3859 984 
Q 3900 1213 3913 1547 
L 2950 1547 
L 2950 1372 
L 2500 1372 
L 2500 3634 
L 5844 3634 
L 5844 1372 
L 5394 1372 
L 5394 1547 
L 4344 1547 
Q 4325 1203 4288 984 
L 6250 984 
L 6250 584 
L 4525 584 
Q 5203 -175 6319 -341 
Q 6144 -572 6013 -809 
Q 4803 -456 4128 466 
Q 3681 -431 2075 -847 
Q 1969 -628 1831 -416 
Q 3303 -106 3713 584 
L 2050 584 
L 2050 984 
z
M 63 1409 
Q 603 2316 922 3509 
L 138 3509 
L 138 3922 
L 1006 3922 
L 1006 5309 
L 1444 5309 
L 1444 3922 
L 2256 3922 
L 2256 3509 
L 1444 3509 
L 1444 2684 
L 1688 2884 
Q 2044 2503 2350 2116 
L 2006 1828 
Q 1719 2244 1444 2563 
L 1444 -822 
L 1006 -822 
L 1006 2581 
Q 672 1438 275 859 
Q 188 1128 63 1409 
z
M 4713 5303 
L 5150 5303 
L 5150 4703 
L 6225 4703 
L 6225 4303 
L 5150 4303 
L 5150 3797 
L 4713 3797 
L 4713 4303 
L 3600 4303 
L 3600 3797 
L 3163 3797 
L 3163 4303 
L 2175 4303 
L 2175 4703 
L 3163 4703 
L 3163 5309 
L 3600 5309 
L 3600 4703 
L 4713 4703 
L 4713 5303 
z
M 5394 3247 
L 2950 3247 
L 2950 2778 
L 5394 2778 
L 5394 3247 
z
M 2950 1934 
L 5394 1934 
L 5394 2403 
L 2950 2403 
L 2950 1934 
z
" transform="scale(0.015625)"/>
     <path id="MicrosoftYaHei-727" d="M 81 1991 
Q 459 2091 925 2234 
L 925 3647 
L 150 3647 
L 150 4066 
L 925 4066 
L 925 5272 
L 1400 5272 
L 1400 4066 
L 2131 4066 
L 2131 3647 
L 1400 3647 
L 1400 2384 
Q 1756 2500 2156 2634 
Q 2144 2328 2144 2153 
Q 1775 2034 1400 1906 
L 1400 -97 
Q 1400 -722 856 -747 
Q 556 -759 231 -753 
Q 200 -522 150 -234 
Q 456 -272 656 -272 
Q 925 -272 925 9 
L 925 1744 
Q 541 1613 150 1472 
L 81 1991 
z
M 5000 5216 
L 5475 5216 
Q 5463 4141 5444 3341 
Q 5403 1831 5119 1044 
Q 5797 278 6325 -391 
L 5906 -734 
Q 5425 -66 4900 588 
Q 4397 -263 3375 -872 
Q 3219 -659 3031 -478 
Q 4206 184 4644 1184 
Q 4938 1916 4963 3347 
Q 4988 4284 5000 5216 
z
M 3838 1878 
Q 3900 1616 4000 1391 
Q 3444 884 2850 316 
Q 2706 172 2563 -41 
L 2238 372 
Q 2431 597 2431 947 
L 2431 4797 
L 2906 4797 
L 2906 991 
Q 3256 1297 3838 1878 
z
M 3213 5147 
L 3619 5353 
Q 4088 4516 4425 3816 
L 3988 3572 
Q 3563 4497 3213 5147 
z
" transform="scale(0.015625)"/>
     <path id="MicrosoftYaHei-747" d="M 2900 1334 
L 4188 1334 
L 4188 2128 
L 2731 2128 
Q 2663 206 1844 -841 
Q 1694 -647 1506 -447 
Q 2288 516 2288 2509 
L 2288 4947 
L 5975 4947 
L 5975 3134 
L 5525 3134 
L 5525 3328 
L 2738 3328 
L 2738 2553 
L 4188 2553 
L 4188 3209 
L 4638 3209 
L 4638 2553 
L 6288 2553 
L 6288 2128 
L 4638 2128 
L 4638 1334 
L 5938 1334 
L 5938 -778 
L 5488 -778 
L 5488 -416 
L 3350 -416 
L 3350 -778 
L 2900 -778 
L 2900 1334 
z
M 100 1966 
Q 544 2088 963 2213 
L 963 3641 
L 175 3641 
L 175 4091 
L 963 4091 
L 963 5284 
L 1425 5284 
L 1425 4091 
L 2106 4091 
L 2106 3641 
L 1425 3641 
L 1425 2356 
Q 1722 2450 2006 2547 
Q 2013 2266 2044 2059 
Q 1722 1956 1425 1856 
L 1425 -34 
Q 1425 -741 806 -753 
Q 613 -759 231 -747 
Q 206 -497 156 -228 
Q 500 -266 681 -266 
Q 963 -266 963 53 
L 963 1703 
Q 534 1559 163 1428 
L 100 1966 
z
M 5525 4534 
L 2738 4534 
L 2738 3741 
L 5525 3741 
L 5525 4534 
z
M 5488 922 
L 3350 922 
L 3350 -9 
L 5488 -9 
L 5488 922 
z
" transform="scale(0.015625)"/>
     <path id="MicrosoftYaHei-3" transform="scale(0.015625)"/>
     <path id="MicrosoftYaHei-78" d="M 372 2113 
Q 372 2278 490 2395 
Q 609 2513 775 2513 
Q 941 2513 1061 2397 
Q 1181 2281 1181 2113 
Q 1181 1950 1064 1831 
Q 947 1713 772 1713 
Q 600 1713 486 1831 
Q 372 1950 372 2113 
z
" transform="scale(0.015625)"/>
     <path id="MicrosoftYaHei-555" d="M 813 3409 
L 3569 3409 
L 3569 941 
L 1306 941 
L 1306 497 
L 813 497 
L 813 3409 
z
M 119 4809 
L 6294 4809 
L 6294 4334 
L 5256 4334 
L 5256 103 
Q 5256 -741 4438 -747 
Q 3850 -747 3294 -741 
Q 3263 -453 3194 -172 
Q 3900 -222 4269 -222 
Q 4731 -222 4731 278 
L 4731 4334 
L 119 4334 
L 119 4809 
z
M 3075 2966 
L 1306 2966 
L 1306 1384 
L 3075 1384 
L 3075 2966 
z
" transform="scale(0.015625)"/>
     <path id="MicrosoftYaHei-459" d="M 4819 5172 
L 5331 5172 
L 5331 4047 
Q 5331 2319 4888 1303 
Q 5663 503 6350 -272 
L 5919 -666 
Q 5278 128 4641 844 
Q 3919 -253 2469 -872 
Q 2325 -678 2131 -441 
Q 3706 284 4250 1241 
Q 4831 2178 4819 4059 
L 4819 5172 
z
M 2881 1709 
Q 2900 1303 2931 1116 
Q 1431 172 1063 -72 
Q 856 -216 669 -384 
L 313 109 
Q 606 372 600 741 
L 600 5084 
L 1113 5084 
L 1113 616 
Q 1800 1028 2881 1709 
z
M 2625 5316 
Q 3044 4653 3556 3728 
L 3069 3453 
Q 2581 4416 2181 5078 
L 2625 5316 
z
" transform="scale(0.015625)"/>
     <path id="MicrosoftYaHei-552" d="M 538 4716 
L 2556 4716 
L 2556 228 
L 2069 228 
L 2069 747 
L 1025 747 
L 1025 166 
L 538 166 
L 538 4716 
z
M 5288 5272 
L 5794 5272 
L 5794 -803 
L 5288 -803 
L 5288 1213 
Q 4625 1044 4125 878 
Q 3850 784 3538 597 
L 3206 1003 
Q 3400 1216 3400 1584 
L 3400 4734 
L 3900 4734 
L 3900 1366 
Q 4475 1509 5288 1725 
L 5288 5272 
z
M 2069 4259 
L 1025 4259 
L 1025 1203 
L 2069 1203 
L 2069 4259 
z
" transform="scale(0.015625)"/>
     <path id="MicrosoftYaHei-6e9" d="M 2288 -9 
Q 3181 416 3903 972 
Q 3644 1800 3566 2978 
L 1938 2978 
L 1938 1944 
Q 2556 2053 3219 2178 
Q 3231 1897 3238 1684 
Q 2581 1559 1938 1434 
L 1938 -34 
Q 1938 -747 1256 -753 
Q 838 -759 419 -734 
Q 388 -453 313 -203 
Q 769 -266 1131 -266 
Q 1425 -272 1425 34 
L 1425 1334 
Q 806 1213 200 1091 
L 75 1628 
Q 722 1731 1425 1853 
L 1425 2978 
L 81 2978 
L 81 3441 
L 1425 3441 
L 1425 4384 
Q 931 4319 363 4253 
Q 319 4491 225 4753 
Q 1763 4897 2869 5128 
L 3019 4628 
Q 2547 4544 1938 4453 
L 1938 3441 
L 3538 3441 
Q 3494 4206 3444 5291 
L 3969 5291 
Q 3991 4291 4034 3441 
L 6319 3441 
L 6319 2978 
L 4063 2978 
Q 4134 2013 4319 1316 
Q 5009 1928 5513 2678 
L 5963 2378 
Q 5309 1494 4488 806 
Q 4663 363 4906 78 
Q 5225 -297 5463 -297 
Q 5594 -297 5650 -91 
Q 5738 234 5831 966 
Q 6094 847 6313 784 
Q 6200 84 6088 -303 
Q 5944 -803 5475 -809 
Q 4938 -803 4456 -166 
Q 4244 113 4081 488 
Q 3397 -19 2606 -403 
Q 2444 -159 2288 -9 
z
M 4469 4734 
L 4794 5066 
Q 5344 4647 5919 4134 
L 5538 3747 
Q 5025 4266 4469 4734 
z
" transform="scale(0.015625)"/>
     <path id="MicrosoftYaHei-6f5" d="M 113 284 
Q 2638 1597 3722 3547 
L 294 3547 
L 294 4034 
L 4088 4034 
L 4088 5297 
L 4613 5297 
L 4613 4034 
L 6231 4034 
L 6231 3547 
L 4613 3547 
L 4613 209 
Q 4613 -678 3775 -678 
Q 3306 -678 2619 -666 
Q 2581 -391 2519 -72 
Q 3125 -134 3650 -134 
Q 4088 -134 4088 347 
L 4088 3253 
Q 2941 1172 481 -172 
Q 344 3 113 284 
z
" transform="scale(0.015625)"/>
     <path id="MicrosoftYaHei-582" d="M 131 2328 
L 6288 2328 
L 6288 1916 
L 5400 1916 
L 5400 34 
Q 5400 -722 4663 -728 
Q 4238 -728 3681 -722 
Q 3644 -466 3588 -191 
Q 4200 -241 4519 -241 
Q 4913 -241 4913 184 
L 4913 1916 
L 131 1916 
L 131 2328 
z
M 863 1447 
L 3806 1447 
L 3806 47 
L 1319 47 
L 1319 -228 
L 863 -228 
L 863 1447 
z
M 906 4147 
L 3788 4147 
L 3788 2666 
L 3331 2666 
L 3331 2816 
L 1363 2816 
L 1363 2666 
L 906 2666 
L 906 4147 
z
M 238 4997 
L 6213 4997 
L 6213 4584 
L 5375 4584 
L 5375 2566 
L 4888 2566 
L 4888 4584 
L 238 4584 
L 238 4997 
z
M 3350 434 
L 3350 1059 
L 1319 1059 
L 1319 434 
L 3350 434 
z
M 3331 3759 
L 1363 3759 
L 1363 3203 
L 3331 3203 
L 3331 3759 
z
" transform="scale(0.015625)"/>
     <path id="MicrosoftYaHei-5c" d="M 3331 3456 
L 1963 0 
L 1344 0 
L 44 3456 
L 713 3456 
L 1556 988 
Q 1659 691 1678 491 
L 1694 491 
Q 1725 753 1803 975 
L 2688 3456 
L 3331 3456 
z
" transform="scale(0.015625)"/>
     <path id="MicrosoftYaHei-14" d="M 372 322 
Q 372 491 487 606 
Q 603 722 775 722 
Q 950 722 1065 605 
Q 1181 488 1181 322 
Q 1181 159 1065 42 
Q 950 -75 772 -75 
Q 600 -75 486 42 
Q 372 159 372 322 
z
" transform="scale(0.015625)"/>
    </defs>
    <use xlink:href="#MicrosoftYaHei-825"/>
    <use xlink:href="#MicrosoftYaHei-727" transform="translate(100 0)"/>
    <use xlink:href="#MicrosoftYaHei-783" transform="translate(200 0)"/>
    <use xlink:href="#MicrosoftYaHei-747" transform="translate(300 0)"/>
    <use xlink:href="#MicrosoftYaHei-3" transform="translate(400 0)"/>
    <use xlink:href="#MicrosoftYaHei-78" transform="translate(429.59375 0)"/>
    <use xlink:href="#MicrosoftYaHei-3" transform="translate(453.671875 0)"/>
    <use xlink:href="#MicrosoftYaHei-555" transform="translate(483.265625 0)"/>
    <use xlink:href="#MicrosoftYaHei-459" transform="translate(583.265625 0)"/>
    <use xlink:href="#MicrosoftYaHei-552" transform="translate(683.265625 0)"/>
    <use xlink:href="#MicrosoftYaHei-6e9" transform="translate(783.265625 0)"/>
    <use xlink:href="#MicrosoftYaHei-6f5" transform="translate(883.265625 0)"/>
    <use xlink:href="#MicrosoftYaHei-582" transform="translate(983.265625 0)"/>
    <use xlink:href="#MicrosoftYaHei-3" transform="translate(1083.265625 0)"/>
    <use xlink:href="#MicrosoftYaHei-78" transform="translate(1112.859375 0)"/>
    <use xlink:href="#MicrosoftYaHei-3" transform="translate(1136.9375 0)"/>
    <use xlink:href="#MicrosoftYaHei-5c" transform="translate(1166.53125 0)"/>
    <use xlink:href="#MicrosoftYaHei-17" transform="translate(1219.015625 0)"/>
    <use xlink:href="#MicrosoftYaHei-14" transform="translate(1277.65625 0)"/>
    <use xlink:href="#MicrosoftYaHei-16" transform="translate(1301.734375 0)"/>
    <use xlink:href="#MicrosoftYaHei-14" transform="translate(1360.375 0)"/>
    <use xlink:href="#MicrosoftYaHei-18" transform="translate(1384.453125 0)"/>
   </g>
  </g>
 </g>
 <defs>
  <clipPath id="p25b8b0aad4">
   <rect x="58.781016" y="67.489219" width="576.258984" height="175.613456"/>
  </clipPath>
  <clipPath id="p983b4877e8">
   <rect x="58.781016" y="256.062675" width="576.258984" height="87.806728"/>
  </clipPath>
 </defs>
</svg>
